<svg xmlns="http://www.w3.org/2000/svg" version="1" width="400" height="550"><defs><pattern id="a" patternTransform="translate(-5 140)" height="40" width="40" patternUnits="userSpaceOnUse"><path d="M20 0l20 20V10L30 0H20zM0 0l40 40V30L10 0H0zm0 10v10l20 20h10L0 10zm0 20v10h10L0 30z" fill="#bdf2e7" fill-rule="evenodd"/></pattern><pattern id="b" patternTransform="translate(-5 90)" height="40" width="40" patternUnits="userSpaceOnUse"><path d="M0 30v10h10L0 30zm0-20v10l20 20h10L0 10zM0 0l40 40V30L10 0H0zm20 0l20 20V10L30 0H20z" fill="#bdcdf2" fill-rule="evenodd"/><path fill="none" d="M0 0h40v40H0z"/></pattern></defs><path d="M150 75h200v25H150z" fill="silver"/><path d="M150 100v65h-10l20 20h-10v15h200v-15h10l-20-20h10v-65H150z" fill="url(#a)" fill-rule="evenodd"/><path d="M150 425v40h-10l20 20h-10v40h200v-40h10l-20-20h10v-40H150z" fill="url(#b)" fill-rule="evenodd"/><path d="M150 124.5h200m-200 375h200m-200-350h200m-200 300h200" fill="none" stroke="#000"/><path d="M150 425h200" fill="none" stroke="#000" stroke-width="2"/><path d="M200.5 125v25m50-25v25m50-25v25m-100 275v25m50-25v25m50-25v25" fill="none" stroke="#000"/><path d="M150 100h200M150 200h200M150 75v90h-10l20 20h-10v192.5h-10l20 20h-10V465h-10l20 20h-10v40h200v-40h10l-20-20h10v-67.5h10l-20-20h10V185h10l-20-20h10V75H150z" fill="none" stroke="#000" stroke-width="2"/><path d="M198.5 83.082h3.744c1.113 0 1.968.247 2.564.741.595.494.893 1.198.893 2.113 0 .918-.298 1.624-.893 2.118-.596.494-1.45.74-2.564.74h-1.488v3.036H198.5v-8.748zm2.256 1.635v2.443h1.248c.437 0 .775-.106 1.014-.32.238-.212.357-.514.357-.904 0-.391-.12-.692-.357-.903-.239-.21-.577-.316-1.014-.316h-1.248zm11.314 2.338a2.69 2.69 0 0 0-.548-.19 2.48 2.48 0 0 0-.547-.062c-.54 0-.955.173-1.246.518-.29.346-.436.841-.436 1.486v3.023h-2.098v-6.562h2.098v1.078c.27-.43.58-.743.929-.94.35-.198.768-.297 1.257-.297.07 0 .146.003.228.01.082.005.201.018.357.037l.006 1.899zm4.178-.446c-.465 0-.82.167-1.063.501-.245.334-.367.816-.367 1.445 0 .629.122 1.11.367 1.444.244.334.598.501 1.063.501.457 0 .807-.167 1.049-.501.242-.334.363-.815.363-1.444 0-.63-.12-1.11-.363-1.445-.242-.334-.592-.5-1.049-.5zm0-1.5c1.129 0 2.01.305 2.646.914.634.61.952 1.454.952 2.532s-.318 1.922-.952 2.53c-.635.61-1.517.915-2.646.915-1.133 0-2.019-.305-2.657-.914-.639-.61-.958-1.453-.958-2.531s.32-1.922.958-2.532c.638-.609 1.524-.914 2.657-.914zm7.418-1.705v1.864h2.162v1.5h-2.162v2.783c0 .304.06.51.182.618.12.107.361.161.72.161h1.078v1.5h-1.798c-.828 0-1.415-.173-1.761-.518-.346-.346-.519-.933-.519-1.761v-2.783h-1.043v-1.5h1.043v-1.864h2.098zm10.002 5.127v.598h-4.904c.05.492.228.861.533 1.107.305.246.73.37 1.277.37.442 0 .894-.066 1.357-.197a6.96 6.96 0 0 0 1.426-.595v1.618a9.034 9.034 0 0 1-1.488.424 7.84 7.84 0 0 1-1.488.144c-1.188 0-2.11-.302-2.769-.905-.658-.604-.987-1.45-.987-2.54 0-1.07.323-1.912.97-2.526.646-.613 1.536-.92 2.669-.92 1.03 0 1.856.31 2.475.932.62.621.929 1.451.929 2.49zm-2.156-.697c0-.398-.117-.72-.349-.964-.232-.244-.536-.366-.911-.366-.406 0-.736.114-.99.343-.254.228-.412.557-.475.987h2.725zm9.04-2.361v1.71a3.382 3.382 0 0 0-.858-.433 2.86 2.86 0 0 0-.893-.14c-.586 0-1.042.17-1.368.512-.327.342-.49.82-.49 1.433 0 .613.163 1.09.49 1.432.326.342.782.513 1.368.513.328 0 .64-.049.934-.146.295-.098.568-.243.818-.434v1.717a5.873 5.873 0 0 1-2.016.363c-1.183 0-2.11-.304-2.777-.911-.668-.608-1.002-1.452-1.002-2.534 0-1.082.334-1.927 1.002-2.534.668-.608 1.594-.912 2.777-.912.344 0 .683.03 1.017.091.334.06.667.152.999.273zm4.114-2.069v1.864h2.162v1.5h-2.162v2.783c0 .304.06.51.182.618.12.107.361.161.72.161h1.078v1.5h-1.798c-.828 0-1.415-.173-1.761-.518-.346-.346-.519-.933-.519-1.761v-2.783h-1.043v-1.5h1.043v-1.864h2.098zm3.451 1.864h2.098v6.562h-2.098v-6.562zm0-2.555h2.098v1.71h-2.098v-1.71zm3.299 2.555h2.098l1.634 4.535 1.63-4.535h2.103l-2.584 6.562h-2.303l-2.578-6.562zm15.205 3.263v.598h-4.904c.05.492.228.861.533 1.107.305.246.73.37 1.277.37.442 0 .894-.066 1.357-.197a6.91 6.91 0 0 0 1.427-.595v1.618a9.073 9.073 0 0 1-1.489.424 7.84 7.84 0 0 1-1.488.144c-1.188 0-2.11-.302-2.769-.905-.658-.604-.987-1.45-.987-2.54 0-1.07.323-1.912.97-2.526.646-.613 1.536-.92 2.669-.92 1.031 0 1.856.31 2.475.932.62.621.93 1.451.93 2.49zm-2.156-.697c0-.398-.116-.72-.349-.964-.232-.244-.536-.366-.91-.366-.407 0-.737.114-.991.343-.254.228-.412.557-.475.987h2.725zm8.004-4.752h2.87l1.993 4.682 2.004-4.682h2.865v8.748h-2.133v-6.398l-2.015 4.716h-1.43l-2.016-4.716v6.398h-2.138v-8.748zm15.457 3.387c.355 0 .625-.078.808-.235.184-.156.276-.386.276-.691 0-.3-.092-.53-.276-.689-.183-.158-.453-.237-.808-.237h-1.248v1.852h1.248zm.076 3.826c.453 0 .794-.096 1.022-.287.229-.192.343-.48.343-.867 0-.38-.113-.663-.34-.853-.226-.19-.568-.284-1.025-.284h-1.324v2.29h1.324zm2.098-3.147c.484.141.859.4 1.125.78.265.379.398.843.398 1.394 0 .844-.285 1.473-.855 1.887-.57.414-1.438.621-2.602.621h-3.744v-8.748h3.387c1.214 0 2.094.184 2.64.55.544.368.817.956.817 1.764 0 .426-.1.789-.3 1.087-.198.3-.487.52-.866.665zm6.668-.187c.472 0 .811-.088 1.016-.264.205-.176.308-.465.308-.867 0-.398-.103-.684-.308-.855-.205-.172-.544-.258-1.016-.258h-.95v2.244h.95zm-.95 1.559v3.31h-2.255v-8.748h3.445c1.152 0 1.997.193 2.534.58.537.387.806.998.806 1.834 0 .578-.14 1.053-.42 1.424-.279.371-.7.644-1.262.82.309.07.585.23.83.478.243.248.49.624.74 1.128l1.225 2.484h-2.402l-1.067-2.174c-.215-.437-.432-.736-.653-.896-.22-.16-.515-.24-.882-.24h-.639zM182.5 108.662h3.744c1.113 0 1.968.247 2.564.741.595.494.893 1.199.893 2.113 0 .918-.298 1.624-.893 2.118-.596.494-1.45.741-2.564.741h-1.488v3.035H182.5v-8.748zm2.256 1.635v2.443h1.248c.437 0 .775-.106 1.014-.32.238-.212.357-.514.357-.904 0-.391-.12-.692-.357-.903-.239-.21-.577-.316-1.014-.316h-1.248zm11.314 2.338a2.693 2.693 0 0 0-.548-.19 2.48 2.48 0 0 0-.547-.062c-.54 0-.955.173-1.246.518-.29.346-.436.841-.436 1.486v3.023h-2.098v-6.562h2.098v1.078c.27-.43.58-.743.929-.94.35-.198.768-.297 1.257-.297.07 0 .146.003.228.01.082.005.201.018.357.038l.006 1.898zm1.055-1.787h2.098v6.562h-2.098v-6.562zm0-2.555h2.098v1.71h-2.098v-1.71zm10.207 3.645c.266-.407.581-.716.946-.93a2.36 2.36 0 0 1 1.204-.319c.754 0 1.329.233 1.723.698.395.465.592 1.14.592 2.027v3.996h-2.11v-3.422a3.773 3.773 0 0 0 .012-.392c0-.465-.068-.802-.205-1.011-.136-.209-.357-.314-.662-.314-.398 0-.706.165-.923.493-.216.328-.329.802-.336 1.424v3.222h-2.11v-3.422c0-.726-.062-1.194-.187-1.403-.125-.209-.348-.314-.668-.314-.403 0-.713.166-.932.496-.219.33-.328.801-.328 1.415v3.228h-2.11v-6.562h2.11v.96c.258-.37.554-.65.888-.837a2.218 2.218 0 0 1 1.104-.282c.453 0 .854.11 1.201.329.348.218.612.525.791.92zm9.375 2.519c-.437 0-.767.074-.987.223-.221.148-.331.367-.331.656 0 .266.089.474.266.624.178.15.425.226.741.226.395 0 .727-.142.997-.425.27-.283.404-.638.404-1.064v-.24h-1.09zm3.205-.791v3.744h-2.115v-.972c-.281.398-.598.688-.95.87-.35.181-.779.272-1.283.272-.68 0-1.231-.198-1.655-.595-.424-.396-.636-.91-.636-1.544 0-.77.265-1.334.794-1.693.53-.36 1.36-.539 2.494-.539h1.236v-.164c0-.332-.131-.575-.393-.73-.261-.154-.67-.231-1.224-.231-.45 0-.868.045-1.254.135-.387.09-.746.224-1.078.404v-1.6c.449-.109.9-.192 1.353-.249.453-.056.906-.085 1.36-.085 1.183 0 2.038.234 2.563.7.525.467.788 1.226.788 2.277zm6.838-1.031a2.693 2.693 0 0 0-.548-.19 2.48 2.48 0 0 0-.548-.062c-.539 0-.954.173-1.245.518-.29.346-.436.841-.436 1.486v3.023h-2.098v-6.562h2.098v1.078c.27-.43.579-.743.928-.94.35-.198.769-.297 1.257-.297.07 0 .147.003.229.01.082.005.2.018.357.038l.006 1.898zm.193-1.787h2.098l1.764 4.453 1.5-4.453h2.097l-2.76 7.183c-.277.73-.6 1.241-.97 1.532-.368.291-.856.437-1.461.437h-1.213v-1.377h.656c.356 0 .615-.057.777-.17.162-.113.288-.316.378-.61l.058-.18-2.924-6.815zm20.819 5.912a8.051 8.051 0 0 1-1.752.615 8.487 8.487 0 0 1-1.875.205c-1.457 0-2.612-.407-3.463-1.222-.852-.814-1.277-1.919-1.277-3.313 0-1.41.433-2.52 1.3-3.328.868-.809 2.055-1.213 3.563-1.213.582 0 1.14.055 1.673.164.533.11 1.036.271 1.508.486v1.81a6.594 6.594 0 0 0-1.456-.62 5.297 5.297 0 0 0-1.45-.205c-.898 0-1.59.25-2.077.753-.486.502-.73 1.22-.73 2.153 0 .926.235 1.64.704 2.144.468.504 1.134.756 1.998.756.234 0 .452-.014.653-.044a2.47 2.47 0 0 0 .542-.137v-1.7h-1.377v-1.511h3.516v4.207zm1.98-8.098h3.744c1.114 0 1.968.247 2.564.741.595.494.893 1.199.893 2.113 0 .918-.297 1.624-.893 2.118-.596.494-1.45.741-2.564.741h-1.488v3.035h-2.256v-8.748zm2.256 1.635v2.443h1.248c.438 0 .775-.106 1.014-.32.238-.212.357-.514.357-.904 0-.391-.119-.692-.357-.903-.239-.21-.576-.316-1.014-.316h-1.248zm5.49-1.635h8.063v1.705h-2.9v7.043h-2.256v-7.043h-2.907v-1.705zm13.395 0h2.256v3.334h3.328v-3.334h2.256v8.748h-2.256v-3.709h-3.328v3.71h-2.256v-8.749zm16.512 5.45v.597h-4.905c.051.492.229.861.533 1.107.305.247.73.37 1.278.37a4.97 4.97 0 0 0 1.356-.197 6.96 6.96 0 0 0 1.427-.594v1.617a9.06 9.06 0 0 1-1.488.425 7.84 7.84 0 0 1-1.489.143c-1.187 0-2.11-.302-2.768-.905-.658-.604-.987-1.45-.987-2.54 0-1.07.323-1.912.97-2.526.646-.613 1.535-.92 2.668-.92 1.031 0 1.857.311 2.476.932s.929 1.451.929 2.49zm-2.157-.698c0-.398-.116-.72-.348-.964-.233-.244-.536-.366-.911-.366-.407 0-.737.114-.99.343-.255.228-.413.557-.475.987h2.724zm6.68 1.043c-.438 0-.767.074-.987.223-.221.148-.331.367-.331.656 0 .266.089.474.266.624.178.15.425.226.741.226.395 0 .727-.142.997-.425.269-.283.404-.638.404-1.064v-.24h-1.09zm3.205-.791v3.744h-2.115v-.972c-.281.398-.598.688-.95.87-.351.181-.779.272-1.283.272-.68 0-1.231-.198-1.655-.595-.424-.396-.636-.91-.636-1.544 0-.77.265-1.334.794-1.693.53-.36 1.36-.539 2.493-.539h1.237v-.164c0-.332-.131-.575-.393-.73-.261-.154-.67-.231-1.224-.231-.45 0-.868.045-1.254.135-.387.09-.746.224-1.078.404v-1.6c.449-.109.9-.192 1.353-.249.453-.056.906-.085 1.36-.085 1.183 0 2.038.234 2.563.7.525.467.788 1.226.788 2.277zm6.428-1.857v-3.516h2.11v9.117h-2.11v-.95c-.29.388-.608.67-.955.85-.348.18-.75.27-1.207.27-.809 0-1.473-.321-1.993-.964-.519-.642-.779-1.47-.779-2.481 0-1.012.26-1.84.78-2.482.519-.642 1.183-.964 1.992-.964.453 0 .854.091 1.204.273.35.182.669.464.958.847zm-1.383 4.248c.45 0 .792-.164 1.028-.493.237-.328.355-.804.355-1.43 0-.624-.118-1.1-.355-1.429-.236-.328-.579-.492-1.028-.492-.445 0-.786.164-1.022.492-.237.328-.355.805-.355 1.43 0 .625.118 1.101.355 1.43.236.328.577.492 1.022.492zm12.07-1.946v.598h-4.904c.05.492.229.861.533 1.107.305.247.73.37 1.278.37.44 0 .893-.066 1.356-.197a6.96 6.96 0 0 0 1.427-.594v1.617a9.06 9.06 0 0 1-1.489.425 7.84 7.84 0 0 1-1.488.143c-1.187 0-2.11-.302-2.768-.905-.659-.604-.988-1.45-.988-2.54 0-1.07.324-1.912.97-2.526.647-.613 1.536-.92 2.669-.92 1.031 0 1.856.311 2.476.932.619.621.928 1.451.928 2.49zm-2.156-.697c0-.398-.116-.72-.349-.964-.232-.244-.536-.366-.91-.366-.407 0-.737.114-.991.343-.254.228-.412.557-.475.987h2.725zm8.613-.78a2.693 2.693 0 0 0-.548-.19 2.48 2.48 0 0 0-.547-.061c-.54 0-.954.173-1.246.518-.29.346-.436.841-.436 1.486v3.023h-2.098v-6.562h2.098v1.078c.27-.43.58-.743.929-.94.35-.198.768-.297 1.257-.297.07 0 .146.003.228.01.082.005.201.018.357.038l.006 1.898z" font-size="12" font-weight="700" font-family="Bitstream Vera Sans"/><path d="M179.328 507.938v1.851a8.034 8.034 0 0 0-1.406-.486 5.574 5.574 0 0 0-1.295-.164c-.54 0-.938.074-1.195.222-.258.149-.387.38-.387.692a.65.65 0 0 0 .26.548c.174.13.49.243.947.337l.96.193c.974.195 1.665.492 2.075.89.41.399.615.965.615 1.7 0 .965-.286 1.682-.858 2.153-.572.47-1.446.706-2.622.706a8.98 8.98 0 0 1-1.67-.158 10.337 10.337 0 0 1-1.676-.469v-1.904a8.47 8.47 0 0 0 1.62.67 5.424 5.424 0 0 0 1.51.226c.491 0 .868-.082 1.13-.246a.783.783 0 0 0 .393-.703c0-.273-.09-.484-.267-.633-.178-.148-.532-.281-1.064-.398l-.873-.194c-.875-.187-1.514-.486-1.919-.896-.404-.41-.606-.963-.606-1.658 0-.871.281-1.541.844-2.01.562-.469 1.37-.703 2.426-.703.48 0 .974.036 1.482.108.508.073 1.033.181 1.576.325zm9.018 5.173v.598h-4.905c.051.492.229.861.534 1.107.304.246.73.37 1.277.37a4.97 4.97 0 0 0 1.356-.197 6.96 6.96 0 0 0 1.427-.594v1.617a9.138 9.138 0 0 1-1.488.425 7.84 7.84 0 0 1-1.488.143c-1.188 0-2.11-.302-2.769-.905-.658-.604-.987-1.45-.987-2.54 0-1.07.323-1.912.97-2.526.646-.613 1.536-.92 2.668-.92 1.032 0 1.857.311 2.476.932.62.621.929 1.451.929 2.49zm-2.157-.697c0-.398-.116-.72-.348-.964-.233-.244-.536-.366-.911-.366-.407 0-.737.114-.99.343-.254.228-.413.557-.475.987h2.724zm9.041-2.361v1.71a3.381 3.381 0 0 0-.858-.433 2.862 2.862 0 0 0-.893-.14c-.586 0-1.042.17-1.369.512-.326.342-.489.82-.489 1.433 0 .613.163 1.09.49 1.432.326.342.782.513 1.368.513.328 0 .64-.049.934-.146.295-.098.567-.243.817-.434v1.717a5.873 5.873 0 0 1-2.015.363c-1.184 0-2.11-.304-2.777-.911-.668-.607-1.002-1.452-1.002-2.534 0-1.082.334-1.927 1.002-2.534.667-.608 1.593-.912 2.777-.912.344 0 .682.03 1.016.091.334.06.667.152 1 .273zm4.946 1.136c-.465 0-.82.167-1.064.501-.244.334-.366.816-.366 1.445 0 .629.122 1.11.366 1.444.244.334.599.501 1.064.501.457 0 .806-.167 1.049-.5.242-.335.363-.816.363-1.445 0-.63-.121-1.11-.363-1.445-.243-.334-.592-.5-1.05-.5zm0-1.5c1.129 0 2.01.305 2.645.915.635.609.952 1.453.952 2.53 0 1.079-.317 1.923-.952 2.532-.634.61-1.516.914-2.645.914-1.133 0-2.019-.305-2.657-.914-.64-.61-.958-1.453-.958-2.531s.319-1.922.958-2.531c.638-.61 1.524-.915 2.657-.915zm11.724 2.725v3.996h-2.109v-3.058c0-.567-.013-.957-.038-1.172-.025-.215-.07-.373-.132-.475a.86.86 0 0 0-.334-.32.992.992 0 0 0-.48-.114c-.438 0-.782.17-1.032.507-.25.338-.375.806-.375 1.404v3.228h-2.097v-6.562h2.097v.96c.317-.382.653-.664 1.008-.846a2.55 2.55 0 0 1 1.178-.273c.758 0 1.333.233 1.726.698.392.465.588 1.14.588 2.027zm6.422-1.605v-3.516h2.11v9.117h-2.11v-.95c-.289.388-.607.67-.955.85-.347.18-.75.27-1.207.27-.808 0-1.473-.321-1.992-.964-.52-.642-.78-1.47-.78-2.481 0-1.012.26-1.84.78-2.482.52-.642 1.184-.964 1.992-.964.453 0 .855.091 1.204.273.35.182.67.464.958.847zm-1.383 4.248c.45 0 .792-.164 1.029-.493.236-.328.354-.804.354-1.43 0-.624-.118-1.1-.354-1.429-.237-.328-.58-.492-1.029-.492-.445 0-.786.164-1.022.492-.236.328-.355.805-.355 1.43 0 .625.119 1.101.355 1.43.236.328.577.492 1.022.492zm8.461-1.6c-.437 0-.766.074-.987.223-.22.148-.331.367-.331.656 0 .266.089.474.267.624.177.15.424.226.74.226.395 0 .727-.142.997-.425.27-.283.404-.638.404-1.064v-.24h-1.09zm3.205-.791v3.744h-2.115v-.973c-.281.399-.597.689-.949.87-.352.182-.78.273-1.283.273-.68 0-1.232-.198-1.655-.595-.424-.396-.636-.91-.636-1.544 0-.77.264-1.334.794-1.693.529-.36 1.36-.539 2.493-.539h1.236v-.164c0-.332-.13-.575-.392-.73-.262-.154-.67-.231-1.225-.231-.45 0-.867.045-1.254.135-.387.09-.746.224-1.078.404v-1.6c.45-.109.9-.192 1.354-.249a11.27 11.27 0 0 1 1.359-.085c1.183 0 2.038.234 2.563.7.526.467.788 1.226.788 2.277zm6.838-1.031a2.693 2.693 0 0 0-.547-.19 2.48 2.48 0 0 0-.548-.062c-.54 0-.954.173-1.245.518-.291.346-.437.841-.437 1.486v3.023h-2.098v-6.562h2.098v1.078c.27-.43.58-.743.929-.94.35-.198.768-.297 1.257-.297.07 0 .146.003.228.01.082.005.201.018.357.038l.006 1.898zm.194-1.787h2.097l1.764 4.453 1.5-4.453h2.098l-2.76 7.183c-.277.73-.6 1.241-.97 1.532-.369.291-.856.437-1.462.437h-1.213v-1.377h.657c.355 0 .614-.057.776-.17.162-.113.288-.316.378-.61l.059-.18-2.924-6.815zm20.818 5.912a8.051 8.051 0 0 1-1.752.615 8.487 8.487 0 0 1-1.875.205c-1.457 0-2.611-.407-3.463-1.222-.851-.814-1.277-1.919-1.277-3.313 0-1.41.433-2.52 1.3-3.328.868-.809 2.055-1.213 3.563-1.213.582 0 1.14.055 1.673.164a7.1 7.1 0 0 1 1.509.486v1.81a6.594 6.594 0 0 0-1.456-.62 5.297 5.297 0 0 0-1.45-.205c-.899 0-1.591.25-2.078.753-.486.502-.73 1.22-.73 2.153 0 .926.235 1.64.704 2.144.469.504 1.135.756 1.998.756.234 0 .452-.014.653-.044a2.47 2.47 0 0 0 .542-.137v-1.7h-1.377v-1.511h3.516v4.207zm1.98-8.098h3.745c1.113 0 1.967.247 2.563.741.596.494.894 1.199.894 2.113 0 .918-.298 1.624-.894 2.118-.596.494-1.45.741-2.563.741h-1.489v3.035h-2.255v-8.748zm2.256 1.635v2.443h1.248c.438 0 .776-.106 1.014-.32.238-.212.358-.514.358-.904 0-.391-.12-.692-.358-.903-.238-.21-.576-.316-1.014-.316h-1.248zm5.49-1.635h8.063v1.705h-2.9v7.043h-2.256v-7.043h-2.906v-1.705zm13.395 0h2.256v3.334h3.328v-3.334h2.256v8.748h-2.256v-3.709h-3.328v3.71h-2.256v-8.749zm16.512 5.45v.597h-4.904c.05.492.228.861.533 1.107.304.246.73.37 1.277.37.442 0 .894-.066 1.357-.197a6.96 6.96 0 0 0 1.426-.594v1.617a9.06 9.06 0 0 1-1.488.425 7.84 7.84 0 0 1-1.488.143c-1.188 0-2.11-.302-2.769-.905-.658-.604-.987-1.45-.987-2.54 0-1.07.323-1.912.97-2.526.646-.613 1.536-.92 2.669-.92 1.03 0 1.856.311 2.475.932.62.621.929 1.451.929 2.49zm-2.156-.698c0-.398-.117-.72-.349-.964-.232-.244-.536-.366-.911-.366-.406 0-.736.114-.99.343-.254.228-.412.557-.475.987h2.725zm6.68 1.043c-.438 0-.767.074-.988.223-.22.148-.331.367-.331.656 0 .266.089.474.267.624.177.15.424.226.74.226.395 0 .727-.142.997-.425.27-.283.404-.638.404-1.064v-.24h-1.09zm3.204-.791v3.744h-2.115v-.973c-.281.399-.597.689-.949.87-.352.182-.78.273-1.283.273-.68 0-1.232-.198-1.656-.595-.423-.396-.635-.91-.635-1.544 0-.77.264-1.334.794-1.693.529-.36 1.36-.539 2.493-.539h1.236v-.164c0-.332-.13-.575-.392-.73-.262-.154-.67-.231-1.225-.231-.45 0-.867.045-1.254.135-.387.09-.746.224-1.078.404v-1.6a11.298 11.298 0 0 1 2.713-.334c1.183 0 2.038.234 2.563.7.526.467.788 1.226.788 2.277zm6.428-1.857v-3.516h2.11v9.117h-2.11v-.95c-.289.388-.607.67-.955.85-.348.18-.75.27-1.207.27-.809 0-1.473-.321-1.992-.964-.52-.642-.78-1.47-.78-2.481 0-1.012.26-1.84.78-2.482.52-.642 1.183-.964 1.992-.964.453 0 .855.091 1.204.273.35.182.67.464.958.847zm-1.383 4.248c.45 0 .792-.164 1.029-.493.236-.328.354-.804.354-1.43 0-.624-.118-1.1-.354-1.429-.237-.328-.58-.492-1.029-.492-.445 0-.786.164-1.022.492-.236.328-.355.805-.355 1.43 0 .625.119 1.101.355 1.43.236.328.577.492 1.022.492zm12.07-1.946v.598h-4.904c.051.492.229.861.534 1.107.304.246.73.37 1.277.37a4.97 4.97 0 0 0 1.356-.197 6.96 6.96 0 0 0 1.427-.594v1.617a9.06 9.06 0 0 1-1.488.425 7.84 7.84 0 0 1-1.488.143c-1.188 0-2.11-.302-2.769-.905-.658-.604-.987-1.45-.987-2.54 0-1.07.323-1.912.97-2.526.646-.613 1.536-.92 2.668-.92 1.032 0 1.857.311 2.476.932.62.621.929 1.451.929 2.49zm-2.156-.697c0-.398-.116-.72-.348-.964-.233-.244-.536-.366-.911-.366-.407 0-.737.114-.99.343-.255.228-.413.557-.475.987h2.724zm8.614-.78a2.693 2.693 0 0 0-.548-.19 2.48 2.48 0 0 0-.548-.061c-.54 0-.954.173-1.245.518-.291.346-.437.841-.437 1.486v3.023h-2.097v-6.562h2.097v1.078c.27-.43.58-.743.929-.94.35-.198.769-.297 1.257-.297.07 0 .146.003.228.01.082.005.202.018.358.038l.006 1.898zM155 131.756h5.531v.996h-4.347v2.59h4.166v.996h-4.166v3.17h4.453v.996H155v-8.748zm13.002 4.787v3.96h-1.078v-3.925c0-.621-.121-1.086-.363-1.394-.243-.309-.606-.463-1.09-.463-.582 0-1.041.185-1.377.556-.336.371-.504.877-.504 1.518v3.709h-1.084v-6.563h1.084v1.02c.258-.395.561-.69.911-.885a2.44 2.44 0 0 1 1.21-.293c.754 0 1.324.234 1.71.7.388.467.58 1.154.58 2.06zm3.228-4.465v1.863h2.221v.838h-2.22v3.563c0 .535.073.879.22 1.031.146.152.444.229.893.229h1.107v.902h-1.107c-.832 0-1.406-.155-1.723-.466-.316-.31-.475-.876-.475-1.696v-3.563h-.79v-.838h.79v-1.863h1.084zm7.448 2.871a1.428 1.428 0 0 0-.396-.155c-.142-.033-.3-.05-.471-.05-.61 0-1.078.198-1.404.595-.326.396-.489.966-.489 1.708v3.457h-1.084v-6.563h1.084v1.02a2.21 2.21 0 0 1 .885-.888c.363-.193.804-.29 1.324-.29.074 0 .156.005.246.015.09.01.19.024.299.044l.006 1.107zm3.873 6.164c-.305.782-.602 1.291-.89 1.53-.29.238-.677.357-1.161.357h-.861v-.902h.632c.297 0 .528-.07.692-.211.164-.14.346-.473.545-.996l.193-.493-2.654-6.457h1.142l2.051 5.133 2.051-5.133h1.143l-2.883 7.172zm8.549-1.605h1.933v-6.674l-2.103.422v-1.078l2.091-.422h1.184v7.752h1.934v.996h-5.04v-.996zm13.9-7.752h5.531v.996h-4.347v2.59h4.166v.996h-4.166v3.17h4.453v.996H205v-8.748zm13.002 4.787v3.96h-1.078v-3.925c0-.621-.121-1.086-.363-1.394-.243-.309-.606-.463-1.09-.463-.582 0-1.041.185-1.377.556-.336.371-.504.877-.504 1.518v3.709h-1.084v-6.563h1.084v1.02c.258-.395.561-.69.911-.885a2.44 2.44 0 0 1 1.21-.293c.754 0 1.324.234 1.71.7.388.467.58 1.154.58 2.06zm3.228-4.465v1.863h2.221v.838h-2.22v3.563c0 .535.073.879.22 1.031.146.152.444.229.893.229h1.107v.902h-1.107c-.832 0-1.406-.155-1.723-.466-.316-.31-.475-.876-.475-1.696v-3.563h-.79v-.838h.79v-1.863h1.084zm7.448 2.871a1.428 1.428 0 0 0-.396-.155c-.142-.033-.3-.05-.471-.05-.61 0-1.078.198-1.404.595-.326.396-.489.966-.489 1.708v3.457h-1.084v-6.563h1.084v1.02a2.21 2.21 0 0 1 .885-.888c.363-.193.804-.29 1.324-.29.074 0 .156.005.246.015.09.01.19.024.299.044l.006 1.107zm3.873 6.164c-.305.782-.602 1.291-.89 1.53-.29.238-.677.357-1.161.357h-.861v-.902h.632c.297 0 .528-.07.692-.211.164-.14.346-.473.545-.996l.193-.493-2.654-6.457h1.142l2.051 5.133 2.051-5.133h1.143l-2.883 7.172zm9.363-1.605h4.13v.996h-5.554v-.996c.45-.465 1.062-1.089 1.837-1.872.776-.783 1.263-1.288 1.462-1.515.379-.426.644-.786.794-1.081.15-.295.226-.585.226-.87 0-.465-.163-.844-.49-1.137-.326-.293-.75-.44-1.274-.44-.371 0-.763.065-1.175.194a7.072 7.072 0 0 0-1.321.586v-1.195a9.406 9.406 0 0 1 1.336-.434 4.989 4.989 0 0 1 1.136-.146c.907 0 1.63.226 2.168.68.54.452.809 1.058.81 1.816-.001.36-.068.7-.203 1.022-.135.322-.38.702-.735 1.14-.098.113-.409.44-.932.981-.524.541-1.262 1.298-2.215 2.27zM255 131.756h5.531v.996h-4.347v2.59h4.166v.996h-4.166v3.17h4.453v.996H255v-8.748zm13.002 4.787v3.96h-1.078v-3.925c0-.621-.121-1.086-.363-1.394-.243-.309-.606-.463-1.09-.463-.582 0-1.041.185-1.377.556-.336.371-.504.877-.504 1.518v3.709h-1.084v-6.563h1.084v1.02c.258-.395.561-.69.911-.885a2.44 2.44 0 0 1 1.21-.293c.754 0 1.324.234 1.71.7.388.467.58 1.154.58 2.06zm3.228-4.465v1.863h2.221v.838h-2.22v3.563c0 .535.073.879.22 1.031.146.152.444.229.893.229h1.107v.902h-1.107c-.832 0-1.406-.155-1.723-.466-.316-.31-.475-.876-.475-1.696v-3.563h-.79v-.838h.79v-1.863h1.084zm7.448 2.871a1.428 1.428 0 0 0-.396-.155c-.142-.033-.3-.05-.471-.05-.61 0-1.078.198-1.404.595-.326.396-.489.966-.489 1.708v3.457h-1.084v-6.563h1.084v1.02a2.21 2.21 0 0 1 .885-.888c.363-.193.804-.29 1.324-.29.074 0 .156.005.246.015.09.01.19.024.299.044l.006 1.107zm3.873 6.164c-.305.782-.602 1.291-.89 1.53-.29.238-.677.357-1.161.357h-.861v-.902h.632c.297 0 .528-.07.692-.211.164-.14.346-.473.545-.996l.193-.493-2.654-6.457h1.142l2.051 5.133 2.051-5.133h1.143l-2.883 7.172zm11.93-5.326c.566.121 1.008.373 1.327.756.318.383.477.855.477 1.418 0 .863-.297 1.531-.89 2.004-.594.473-1.438.709-2.532.709-.367 0-.745-.036-1.134-.109a8.221 8.221 0 0 1-1.204-.325v-1.142a4.1 4.1 0 0 0 1.079.433c.39.098.798.147 1.224.147.742 0 1.308-.147 1.696-.44.39-.293.583-.718.583-1.277 0-.516-.18-.919-.542-1.21-.36-.291-.864-.437-1.508-.437h-1.02v-.972h1.067c.582 0 1.027-.116 1.335-.349.309-.232.463-.567.463-1.005 0-.449-.159-.794-.477-1.034-.319-.24-.775-.36-1.368-.36-.325 0-.672.035-1.043.105-.371.07-.78.18-1.225.328v-1.054c.45-.125.87-.22 1.263-.282a7.078 7.078 0 0 1 1.11-.093c.899 0 1.61.204 2.133.612.523.408.785.96.785 1.655 0 .485-.139.894-.416 1.228-.277.334-.672.565-1.184.694zM305 131.756h5.531v.996h-4.347v2.59h4.166v.996h-4.166v3.17h4.453v.996H305v-8.748zm13.002 4.787v3.96h-1.078v-3.925c0-.621-.121-1.086-.363-1.394-.243-.309-.606-.463-1.09-.463-.582 0-1.041.185-1.377.556-.336.371-.504.877-.504 1.518v3.709h-1.084v-6.563h1.084v1.02c.258-.395.561-.69.911-.885a2.44 2.44 0 0 1 1.21-.293c.754 0 1.324.234 1.71.7.388.467.58 1.154.58 2.06zm3.228-4.465v1.863h2.221v.838h-2.22v3.563c0 .535.073.879.22 1.031.146.152.444.229.893.229h1.107v.902h-1.107c-.832 0-1.406-.155-1.723-.466-.316-.31-.475-.876-.475-1.696v-3.563h-.79v-.838h.79v-1.863h1.084zm7.448 2.871a1.428 1.428 0 0 0-.396-.155c-.142-.033-.3-.05-.471-.05-.61 0-1.078.198-1.404.595-.326.396-.489.966-.489 1.708v3.457h-1.084v-6.563h1.084v1.02a2.21 2.21 0 0 1 .885-.888c.363-.193.804-.29 1.324-.29.074 0 .156.005.246.015.09.01.19.024.299.044l.006 1.107zm3.873 6.164c-.305.782-.602 1.291-.89 1.53-.29.238-.677.357-1.161.357h-.861v-.902h.632c.297 0 .528-.07.692-.211.164-.14.346-.473.545-.996l.193-.493-2.654-6.457h1.142l2.051 5.133 2.051-5.133h1.143l-2.883 7.172zm11.595-8.326l-2.988 4.67h2.988v-4.67zm-.31-1.031h1.488v5.701h1.248v.984h-1.248v2.063h-1.178v-2.063h-3.949V137.3l3.639-5.543zM210 171.082h5.531v.996h-4.347v2.59h4.166v.996h-4.166v3.17h4.453v.996H210v-8.748zm13.002 4.787v3.961h-1.078v-3.926c0-.62-.121-1.086-.363-1.394-.243-.309-.606-.463-1.09-.463-.582 0-1.041.185-1.377.557-.336.37-.504.876-.504 1.517v3.71h-1.084v-6.563h1.084v1.02c.258-.395.561-.69.911-.886a2.44 2.44 0 0 1 1.21-.293c.754 0 1.324.234 1.71.7.388.467.58 1.154.58 2.06zm3.228-4.465v1.864h2.221v.837h-2.22v3.563c0 .535.073.879.22 1.031.146.153.444.229.893.229h1.107v.902h-1.107c-.832 0-1.406-.155-1.723-.466-.316-.31-.475-.876-.475-1.696v-3.563h-.79v-.837h.79v-1.864h1.084zm7.448 2.871a1.428 1.428 0 0 0-.396-.155c-.142-.033-.3-.05-.471-.05-.61 0-1.078.199-1.404.595-.326.397-.489.966-.489 1.708v3.457h-1.084v-6.562h1.084v1.02a2.21 2.21 0 0 1 .885-.889c.363-.193.804-.29 1.324-.29.074 0 .156.005.246.015.09.01.19.024.299.044l.006 1.107zm1.142-1.007h1.078v6.562h-1.078v-6.562zm0-2.555h1.078v1.365h-1.078v-1.365zm8.942 5.566v.528h-4.957c.047.742.27 1.307.67 1.696.401.389.959.583 1.673.583.414 0 .816-.05 1.205-.152a5.357 5.357 0 0 0 1.157-.457v1.02a6.543 6.543 0 0 1-1.19.374 5.96 5.96 0 0 1-1.236.129c-1.047 0-1.876-.305-2.487-.914-.612-.61-.917-1.434-.917-2.473 0-1.074.29-1.926.87-2.557.58-.631 1.362-.947 2.346-.947.883 0 1.582.285 2.095.853.514.568.77 1.34.77 2.317zm-1.078-.316c-.008-.59-.173-1.06-.496-1.412-.322-.352-.749-.528-1.28-.528-.601 0-1.083.17-1.444.51-.361.34-.57.819-.624 1.436l3.844-.006zm7.03-2.502v1.02a4.211 4.211 0 0 0-1.968-.47c-.535 0-.936.083-1.204.247-.268.164-.401.41-.401.738 0 .25.095.446.287.589.191.143.576.278 1.154.407l.37.082c.765.164 1.309.396 1.631.695.322.298.483.715.483 1.25 0 .61-.24 1.092-.723 1.448-.483.355-1.146.533-1.99.533a6.16 6.16 0 0 1-1.098-.103 9.187 9.187 0 0 1-1.204-.307v-1.113c.398.207.79.362 1.178.465a4.4 4.4 0 0 0 1.148.156c.508 0 .898-.087 1.172-.261a.824.824 0 0 0 .41-.735c0-.293-.099-.518-.296-.674-.197-.157-.63-.307-1.298-.451l-.375-.088c-.668-.141-1.15-.357-1.447-.648-.297-.29-.445-.69-.445-1.198 0-.617.218-1.094.656-1.43.437-.336 1.058-.504 1.863-.504a6.9 6.9 0 0 1 1.125.088c.352.059.676.147.973.264zm6.06-2.379h4.646v.996h-3.563v2.145a3.33 3.33 0 0 1 .516-.132c.172-.03.344-.044.516-.044.976 0 1.75.268 2.32.803.57.535.855 1.26.855 2.173 0 .942-.293 1.673-.878 2.195-.586.521-1.413.782-2.479.782a6.87 6.87 0 0 1-1.122-.094 8.946 8.946 0 0 1-1.18-.28v-1.19a4.612 4.612 0 0 0 2.279.568c.675 0 1.21-.178 1.605-.533.395-.356.592-.838.592-1.447 0-.61-.197-1.092-.592-1.448-.394-.355-.93-.533-1.605-.533a4.29 4.29 0 0 0-.947.106c-.314.07-.635.18-.964.328v-4.395zm6.345 5.04h6v.843h-6v-.844zm7.488 2.712h1.934v-6.674l-2.103.422v-1.078l2.091-.422h1.184v7.752h1.933v.996h-5.039v-.996zm8.455 0h4.131v.996h-5.554v-.996a229.04 229.04 0 0 1 1.837-1.872c.775-.783 1.262-1.288 1.462-1.515.378-.426.643-.786.793-1.08.15-.296.226-.586.226-.87 0-.466-.163-.845-.49-1.138-.325-.293-.75-.44-1.274-.44-.37 0-.762.065-1.174.194a7.072 7.072 0 0 0-1.322.586v-1.195a9.405 9.405 0 0 1 1.336-.434 4.989 4.989 0 0 1 1.137-.146c.906 0 1.629.226 2.168.68.539.453.808 1.058.808 1.816 0 .36-.067.7-.202 1.022-.134.323-.38.703-.735 1.14-.098.113-.408.44-.932.981-.523.541-1.261 1.298-2.214 2.271zm9.153-3.158c-.563 0-1.005.15-1.327.451-.323.3-.484.715-.484 1.242s.161.942.484 1.242c.322.301.764.452 1.327.452.562 0 1.006-.152 1.33-.455.324-.302.486-.715.486-1.239 0-.527-.16-.941-.483-1.242-.322-.3-.767-.451-1.333-.451zm-1.184-.504c-.508-.125-.903-.361-1.186-.71-.283-.347-.425-.77-.425-1.27 0-.7.249-1.253.747-1.659.498-.406 1.18-.61 2.048-.61.87 0 1.555.204 2.05.61.497.406.745.96.745 1.658 0 .5-.142.924-.425 1.272-.283.348-.677.584-1.18.709.57.133 1.014.392 1.332.78.319.386.478.859.478 1.417 0 .848-.259 1.498-.777 1.951-.517.453-1.258.68-2.223.68-.965 0-1.706-.227-2.224-.68-.517-.453-.776-1.103-.776-1.95 0-.56.16-1.032.48-1.419.32-.387.766-.646 1.336-.78zm-.433-1.87c0 .454.141.807.424 1.061.284.254.681.381 1.193.381.508 0 .905-.127 1.192-.38.287-.255.43-.608.43-1.061 0-.453-.143-.807-.43-1.06-.287-.255-.684-.382-1.192-.382-.512 0-.91.127-1.193.381-.283.254-.424.608-.424 1.06zM210 471.082h5.531v.996h-4.347v2.59h4.166v.996h-4.166v3.17h4.453v.996H210v-8.748zm13.002 4.787v3.961h-1.078v-3.926c0-.62-.121-1.086-.363-1.394-.243-.309-.606-.463-1.09-.463-.582 0-1.041.185-1.377.557-.336.37-.504.876-.504 1.517v3.71h-1.084v-6.563h1.084v1.02c.258-.395.561-.69.911-.886a2.44 2.44 0 0 1 1.21-.293c.754 0 1.324.234 1.71.7.388.467.58 1.154.58 2.06zm3.228-4.465v1.864h2.221v.837h-2.22v3.563c0 .535.073.879.22 1.031.146.153.444.229.893.229h1.107v.902h-1.107c-.832 0-1.406-.155-1.723-.466-.316-.31-.475-.876-.475-1.696v-3.563h-.79v-.837h.79v-1.864h1.084zm7.448 2.871a1.428 1.428 0 0 0-.396-.155c-.142-.033-.3-.05-.471-.05-.61 0-1.078.199-1.404.595-.326.397-.489.966-.489 1.708v3.457h-1.084v-6.562h1.084v1.02a2.21 2.21 0 0 1 .885-.889c.363-.193.804-.29 1.324-.29.074 0 .156.005.246.015.09.01.19.024.299.044l.006 1.107zm1.142-1.007h1.078v6.562h-1.078v-6.562zm0-2.555h1.078v1.365h-1.078v-1.365zm8.942 5.566v.528h-4.957c.047.742.27 1.307.67 1.696.401.389.959.583 1.673.583.414 0 .816-.05 1.205-.152a5.357 5.357 0 0 0 1.157-.457v1.02a6.543 6.543 0 0 1-1.19.374 5.96 5.96 0 0 1-1.236.129c-1.047 0-1.876-.305-2.487-.914-.612-.61-.917-1.434-.917-2.473 0-1.074.29-1.926.87-2.557.58-.631 1.362-.947 2.346-.947.883 0 1.582.285 2.095.853.514.568.77 1.34.77 2.317zm-1.078-.316c-.008-.59-.173-1.06-.496-1.412-.322-.352-.749-.528-1.28-.528-.601 0-1.083.17-1.444.51-.361.34-.57.819-.624 1.436l3.844-.006zm7.03-2.502v1.02a4.211 4.211 0 0 0-1.968-.47c-.535 0-.936.083-1.204.247-.268.164-.401.41-.401.738 0 .25.095.446.287.589.191.143.576.278 1.154.407l.37.082c.765.164 1.309.396 1.631.695.322.298.483.715.483 1.25 0 .61-.24 1.092-.723 1.448-.483.355-1.146.533-1.99.533a6.16 6.16 0 0 1-1.098-.103 9.187 9.187 0 0 1-1.204-.307v-1.113c.398.207.79.362 1.178.465a4.4 4.4 0 0 0 1.148.156c.508 0 .898-.087 1.172-.261a.824.824 0 0 0 .41-.735c0-.293-.099-.518-.296-.674-.197-.157-.63-.307-1.298-.451l-.375-.088c-.668-.141-1.15-.357-1.447-.648-.297-.29-.445-.69-.445-1.198 0-.617.218-1.094.656-1.43.437-.336 1.058-.504 1.863-.504a6.9 6.9 0 0 1 1.125.088c.352.059.676.147.973.264zm6.06-2.379h4.646v.996h-3.563v2.145a3.33 3.33 0 0 1 .516-.132c.172-.03.344-.044.516-.044.976 0 1.75.267 2.32.803.57.535.855 1.26.855 2.173 0 .942-.293 1.673-.878 2.195-.586.521-1.413.782-2.479.782a6.87 6.87 0 0 1-1.122-.094 8.946 8.946 0 0 1-1.18-.28v-1.19a4.612 4.612 0 0 0 2.279.568c.675 0 1.21-.178 1.605-.533.395-.356.592-.838.592-1.447 0-.61-.197-1.092-.592-1.448-.394-.355-.93-.533-1.605-.533a4.29 4.29 0 0 0-.947.106c-.314.07-.635.18-.964.328v-4.395zm6.345 5.04h6v.843h-6v-.844zm7.488 2.712h1.934v-6.674l-2.103.422v-1.078l2.091-.422h1.184v7.752h1.933v.996h-5.039v-.996zm8.455 0h4.131v.996h-5.554v-.996a229.04 229.04 0 0 1 1.837-1.872c.775-.783 1.262-1.288 1.462-1.515.378-.426.643-.786.793-1.08.15-.296.226-.586.226-.87 0-.466-.163-.845-.49-1.138-.325-.293-.75-.44-1.274-.44-.37 0-.762.065-1.174.194a7.072 7.072 0 0 0-1.322.586v-1.195a9.405 9.405 0 0 1 1.336-.434 4.989 4.989 0 0 1 1.137-.146c.906 0 1.629.226 2.168.68.539.453.808 1.058.808 1.816 0 .36-.067.7-.202 1.022-.134.323-.38.703-.735 1.14-.098.113-.408.44-.932.981-.523.541-1.261 1.298-2.214 2.271zm9.153-3.158c-.563 0-1.005.15-1.327.45-.323.302-.484.716-.484 1.243 0 .527.161.942.484 1.242.322.301.764.451 1.327.451.562 0 1.006-.15 1.33-.454.324-.302.486-.715.486-1.239 0-.527-.16-.941-.483-1.242-.322-.3-.767-.451-1.333-.451zm-1.184-.504c-.508-.125-.903-.361-1.186-.71-.283-.347-.425-.77-.425-1.27 0-.7.249-1.253.747-1.659.498-.406 1.18-.61 2.048-.61.87 0 1.555.204 2.05.61.497.406.745.96.745 1.658 0 .5-.142.924-.425 1.272-.283.348-.677.584-1.18.709.57.133 1.014.392 1.332.78.319.386.478.859.478 1.417 0 .848-.259 1.498-.777 1.951-.517.453-1.258.68-2.223.68-.965 0-1.706-.227-2.224-.68-.517-.453-.776-1.103-.776-1.95 0-.56.16-1.032.48-1.419.32-.387.766-.646 1.336-.78zm-.433-1.87c0 .454.141.807.424 1.061.284.254.681.381 1.193.381.508 0 .905-.127 1.192-.38.287-.255.43-.608.43-1.061 0-.453-.143-.807-.43-1.06-.287-.255-.684-.382-1.192-.382-.512 0-.91.127-1.193.381-.283.254-.424.608-.424 1.06zM155 433.756h5.531v.996h-4.347v2.59h4.166v.996h-4.166v3.17h4.453v.996H155v-8.748zm13.002 4.787v3.96h-1.078v-3.925c0-.621-.121-1.086-.363-1.394-.243-.309-.606-.463-1.09-.463-.582 0-1.041.185-1.377.556-.336.371-.504.877-.504 1.518v3.709h-1.084v-6.563h1.084v1.02c.258-.395.561-.69.911-.885a2.44 2.44 0 0 1 1.21-.293c.754 0 1.324.234 1.71.7.388.467.58 1.154.58 2.06zm3.228-4.465v1.863h2.221v.838h-2.22v3.563c0 .535.073.879.22 1.031.146.152.444.229.893.229h1.107v.902h-1.107c-.832 0-1.406-.155-1.723-.466-.316-.31-.475-.876-.475-1.696v-3.563h-.79v-.838h.79v-1.863h1.084zm7.448 2.871a1.428 1.428 0 0 0-.396-.155c-.142-.033-.3-.05-.471-.05-.61 0-1.078.198-1.404.595-.326.396-.489.966-.489 1.708v3.457h-1.084v-6.563h1.084v1.02a2.21 2.21 0 0 1 .885-.888c.363-.193.804-.29 1.324-.29.074 0 .156.005.246.015.09.01.19.024.299.044l.006 1.107zm3.873 6.164c-.305.782-.602 1.291-.89 1.53-.29.238-.677.357-1.161.357h-.861v-.902h.632c.297 0 .528-.07.692-.211.164-.14.346-.473.545-.996l.193-.493-2.654-6.457h1.142l2.051 5.133 2.051-5.133h1.143l-2.883 7.172zm8.549-1.605h1.933v-6.674l-2.103.422v-1.078l2.091-.422h1.184v7.752h1.934v.996h-5.04v-.996z" font-size="12" font-weight="400" font-family="Bitstream Vera Sans"/><path d="M205 433.756h5.531v.996h-4.347v2.59h4.166v.996h-4.166v3.17h4.453v.996H205v-8.748zm13.002 4.787v3.96h-1.078v-3.925c0-.621-.121-1.086-.363-1.394-.243-.309-.606-.463-1.09-.463-.582 0-1.041.185-1.377.556-.336.371-.504.877-.504 1.518v3.709h-1.084v-6.563h1.084v1.02c.258-.395.561-.69.911-.885a2.44 2.44 0 0 1 1.21-.293c.754 0 1.324.234 1.71.7.388.467.58 1.154.58 2.06zm3.228-4.465v1.863h2.221v.838h-2.22v3.563c0 .535.073.879.22 1.031.146.152.444.229.893.229h1.107v.902h-1.107c-.832 0-1.406-.155-1.723-.466-.316-.31-.475-.876-.475-1.696v-3.563h-.79v-.838h.79v-1.863h1.084zm7.448 2.871a1.428 1.428 0 0 0-.396-.155c-.142-.033-.3-.05-.471-.05-.61 0-1.078.198-1.404.595-.326.396-.489.966-.489 1.708v3.457h-1.084v-6.563h1.084v1.02a2.21 2.21 0 0 1 .885-.888c.363-.193.804-.29 1.324-.29.074 0 .156.005.246.015.09.01.19.024.299.044l.006 1.107zm3.873 6.164c-.305.782-.602 1.291-.89 1.53-.29.238-.677.357-1.161.357h-.861v-.902h.632c.297 0 .528-.07.692-.211.164-.14.346-.473.545-.996l.193-.493-2.654-6.457h1.142l2.051 5.133 2.051-5.133h1.143l-2.883 7.172zm9.363-1.605h4.13v.996h-5.554v-.996c.45-.465 1.062-1.09 1.837-1.872.776-.783 1.263-1.288 1.462-1.515.379-.426.644-.786.794-1.081.15-.295.226-.585.226-.87 0-.465-.163-.844-.49-1.137-.326-.293-.75-.44-1.274-.44-.371 0-.763.065-1.175.194a7.072 7.072 0 0 0-1.321.586v-1.195a9.406 9.406 0 0 1 1.336-.434 4.983 4.983 0 0 1 1.136-.146c.907 0 1.63.226 2.168.68.54.452.809 1.058.81 1.816-.001.36-.068.7-.203 1.022-.135.322-.38.702-.735 1.14-.098.113-.409.44-.932.981-.524.541-1.262 1.298-2.215 2.27z" font-size="12" font-weight="400" font-family="DejaVu Sans"/><path d="M255 433.756h5.531v.996h-4.347v2.59h4.166v.996h-4.166v3.17h4.453v.996H255v-8.748zm13.002 4.787v3.96h-1.078v-3.925c0-.621-.121-1.086-.363-1.394-.243-.309-.606-.463-1.09-.463-.582 0-1.041.185-1.377.556-.336.371-.504.877-.504 1.518v3.709h-1.084v-6.563h1.084v1.02c.258-.395.561-.69.911-.885a2.44 2.44 0 0 1 1.21-.293c.754 0 1.324.234 1.71.7.388.467.58 1.154.58 2.06zm3.228-4.465v1.863h2.221v.838h-2.22v3.563c0 .535.073.879.22 1.031.146.152.444.229.893.229h1.107v.902h-1.107c-.832 0-1.406-.155-1.723-.466-.316-.31-.475-.876-.475-1.696v-3.563h-.79v-.838h.79v-1.863h1.084zm7.448 2.871a1.428 1.428 0 0 0-.396-.155c-.142-.033-.3-.05-.471-.05-.61 0-1.078.198-1.404.595-.326.396-.489.966-.489 1.708v3.457h-1.084v-6.563h1.084v1.02a2.21 2.21 0 0 1 .885-.888c.363-.193.804-.29 1.324-.29.074 0 .156.005.246.015.09.01.19.024.299.044l.006 1.107zm3.873 6.164c-.305.782-.602 1.291-.89 1.53-.29.238-.677.357-1.161.357h-.861v-.902h.632c.297 0 .528-.07.692-.211.164-.14.346-.473.545-.996l.193-.493-2.654-6.457h1.142l2.051 5.133 2.051-5.133h1.143l-2.883 7.172zm11.93-5.326c.566.121 1.008.373 1.327.756.318.383.477.855.477 1.418 0 .863-.297 1.531-.89 2.004-.594.473-1.438.709-2.532.709-.367 0-.745-.036-1.134-.109a8.221 8.221 0 0 1-1.204-.325v-1.142a4.1 4.1 0 0 0 1.079.433c.39.098.798.147 1.224.147.742 0 1.308-.147 1.696-.44.39-.293.583-.718.583-1.277 0-.516-.18-.919-.542-1.21-.36-.291-.864-.437-1.508-.437h-1.02v-.972h1.067c.582 0 1.027-.116 1.335-.349.309-.232.463-.567.463-1.005 0-.449-.159-.794-.477-1.034-.319-.24-.775-.36-1.368-.36-.325 0-.672.035-1.043.105-.371.07-.78.18-1.225.328v-1.054c.45-.125.87-.22 1.263-.282a7.078 7.078 0 0 1 1.11-.093c.899 0 1.61.204 2.133.612.523.408.785.96.785 1.655 0 .485-.139.894-.416 1.228-.277.334-.672.565-1.184.694zM305 433.756h5.531v.996h-4.347v2.59h4.166v.996h-4.166v3.17h4.453v.996H305v-8.748zm13.002 4.787v3.96h-1.078v-3.925c0-.621-.121-1.086-.363-1.394-.243-.309-.606-.463-1.09-.463-.582 0-1.041.185-1.377.556-.336.371-.504.877-.504 1.518v3.709h-1.084v-6.563h1.084v1.02c.258-.395.561-.69.911-.885a2.44 2.44 0 0 1 1.21-.293c.754 0 1.324.234 1.71.7.388.467.58 1.154.58 2.06zm3.228-4.465v1.863h2.221v.838h-2.22v3.563c0 .535.073.879.22 1.031.146.152.444.229.893.229h1.107v.902h-1.107c-.832 0-1.406-.155-1.723-.466-.316-.31-.475-.876-.475-1.696v-3.563h-.79v-.838h.79v-1.863h1.084zm7.448 2.871a1.428 1.428 0 0 0-.396-.155c-.142-.033-.3-.05-.471-.05-.61 0-1.078.198-1.404.595-.326.396-.489.966-.489 1.708v3.457h-1.084v-6.563h1.084v1.02a2.21 2.21 0 0 1 .885-.888c.363-.193.804-.29 1.324-.29.074 0 .156.005.246.015.09.01.19.024.299.044l.006 1.107zm3.873 6.164c-.305.782-.602 1.291-.89 1.53-.29.238-.677.357-1.161.357h-.861v-.902h.632c.297 0 .528-.07.692-.211.164-.14.346-.473.545-.996l.193-.493-2.654-6.457h1.142l2.051 5.133 2.051-5.133h1.143l-2.883 7.172zm11.595-8.326l-2.988 4.67h2.988v-4.67zm-.31-1.031h1.488v5.701h1.248v.984h-1.248v2.063h-1.178v-2.063h-3.949V439.3l3.639-5.543z" font-size="12" font-weight="400" font-family="Bitstream Vera Sans"/><path d="M150 274.5h200m-200 75h200" fill="none" stroke="#000"/><path d="M215 233.082h3.744c1.113 0 1.968.247 2.564.741.595.494.893 1.198.893 2.113 0 .918-.298 1.624-.893 2.118-.596.494-1.45.74-2.564.74h-1.488v3.036H215v-8.748zm2.256 1.635v2.443h1.248c.437 0 .775-.106 1.014-.32.238-.212.357-.514.357-.904 0-.391-.12-.692-.357-.903-.239-.21-.577-.316-1.014-.316h-1.248zm9.38 4.16c-.437 0-.766.074-.987.223-.22.148-.33.367-.33.656 0 .265.088.473.266.624.178.15.425.225.741.225.395 0 .727-.141.996-.424.27-.284.405-.638.405-1.064v-.24h-1.09zm3.206-.791v3.744h-2.115v-.973c-.282.399-.598.689-.95.87-.351.182-.779.273-1.283.273-.68 0-1.231-.198-1.655-.595-.424-.396-.636-.91-.636-1.544 0-.77.265-1.334.794-1.693.53-.36 1.36-.54 2.493-.54h1.237v-.163c0-.332-.131-.575-.393-.73-.262-.154-.67-.231-1.225-.231a5.53 5.53 0 0 0-1.254.135c-.386.09-.746.224-1.078.404v-1.6c.45-.109.9-.192 1.354-.249.453-.056.906-.085 1.36-.085 1.183 0 2.037.234 2.563.7.525.467.788 1.226.788 2.277zm6.838-1.031a2.693 2.693 0 0 0-.548-.19 2.481 2.481 0 0 0-.548-.062c-.54 0-.954.173-1.245.518-.291.346-.437.841-.437 1.486v3.023h-2.097v-6.562h2.097v1.078c.27-.43.58-.743.929-.94.35-.198.769-.297 1.257-.297.07 0 .146.003.228.01.082.005.202.018.358.038l.006 1.898zm3.345-3.65v1.863h2.163v1.5h-2.163v2.783c0 .304.06.51.182.618.121.107.361.161.72.161h1.079v1.5h-1.799c-.828 0-1.415-.173-1.76-.518-.346-.346-.52-.933-.52-1.761v-2.783h-1.042v-1.5h1.043v-1.864h2.097zm3.452 1.863h2.097v6.562h-2.097v-6.562zm0-2.555h2.097v1.71h-2.097v-1.71zm6.416.691v1.864h2.162v1.5h-2.162v2.783c0 .304.06.51.181.618.121.107.362.161.72.161h1.079v1.5h-1.799c-.828 0-1.415-.173-1.76-.518-.346-.346-.52-.933-.52-1.761v-2.783h-1.042v-1.5h1.043v-1.864h2.098zm3.45 1.864h2.098v6.562h-2.097v-6.562zm0-2.555h2.098v1.71h-2.097v-1.71zm7.249 3.896c-.465 0-.82.167-1.064.501-.244.334-.366.816-.366 1.445 0 .629.122 1.11.366 1.444.244.334.599.501 1.064.501.457 0 .806-.167 1.049-.501.242-.334.363-.815.363-1.444 0-.63-.121-1.11-.363-1.445-.243-.334-.592-.5-1.05-.5zm0-1.5c1.129 0 2.01.305 2.645.914.635.61.952 1.454.952 2.532s-.317 1.922-.952 2.53c-.634.61-1.516.915-2.645.915-1.133 0-2.019-.305-2.657-.914-.64-.61-.958-1.453-.958-2.531s.319-1.922.958-2.532c.638-.609 1.524-.914 2.657-.914zm11.724 2.725v3.996h-2.109v-3.059c0-.566-.013-.957-.038-1.171-.025-.215-.07-.373-.132-.475a.86.86 0 0 0-.334-.32.992.992 0 0 0-.48-.114c-.438 0-.782.17-1.032.507-.25.338-.375.806-.375 1.404v3.228h-2.097v-6.562h2.097v.96c.317-.382.653-.665 1.008-.846a2.55 2.55 0 0 1 1.178-.273c.758 0 1.333.233 1.726.698.392.464.588 1.14.588 2.027zm6.528 2.437h1.992v-5.654l-2.045.422v-1.535l2.033-.422h2.145v7.19h1.992v1.558h-6.117v-1.559zM215 308.582h3.744c1.113 0 1.968.247 2.564.741.595.494.893 1.198.893 2.113 0 .918-.298 1.624-.893 2.118-.596.494-1.45.74-2.564.74h-1.488v3.036H215v-8.748zm2.256 1.635v2.443h1.248c.437 0 .775-.106 1.014-.32.238-.212.357-.514.357-.904 0-.391-.12-.692-.357-.903-.239-.21-.577-.316-1.014-.316h-1.248zm9.38 4.16c-.437 0-.766.074-.987.223-.22.148-.33.367-.33.656 0 .265.088.473.266.624.178.15.425.225.741.225.395 0 .727-.141.996-.424.27-.284.405-.638.405-1.064v-.24h-1.09zm3.206-.791v3.744h-2.115v-.973c-.282.399-.598.689-.95.87-.351.182-.779.273-1.283.273-.68 0-1.231-.198-1.655-.595-.424-.396-.636-.91-.636-1.544 0-.77.265-1.334.794-1.693.53-.36 1.36-.54 2.493-.54h1.237v-.163c0-.332-.131-.575-.393-.73-.262-.154-.67-.231-1.225-.231a5.53 5.53 0 0 0-1.254.135c-.386.09-.746.224-1.078.404v-1.6c.45-.109.9-.192 1.354-.249.453-.056.906-.085 1.36-.085 1.183 0 2.037.234 2.563.7.525.467.788 1.226.788 2.277zm6.838-1.031a2.693 2.693 0 0 0-.548-.19 2.481 2.481 0 0 0-.548-.062c-.54 0-.954.173-1.245.518-.291.346-.437.841-.437 1.486v3.023h-2.097v-6.562h2.097v1.078c.27-.43.58-.743.929-.94.35-.198.769-.297 1.257-.297.07 0 .146.003.228.01.082.005.202.018.358.038l.006 1.898zm3.345-3.65v1.863h2.163v1.5h-2.163v2.783c0 .304.06.51.182.618.121.107.361.161.72.161h1.079v1.5h-1.799c-.828 0-1.415-.173-1.76-.518-.346-.346-.52-.933-.52-1.761v-2.783h-1.042v-1.5h1.043v-1.864h2.097zm3.452 1.863h2.097v6.562h-2.097v-6.562zm0-2.555h2.097v1.71h-2.097v-1.71zm6.416.691v1.864h2.162v1.5h-2.162v2.783c0 .304.06.51.181.618.121.107.362.161.72.161h1.079v1.5h-1.799c-.828 0-1.415-.173-1.76-.518-.346-.346-.52-.933-.52-1.761v-2.783h-1.042v-1.5h1.043v-1.864h2.098zm3.45 1.864h2.098v6.562h-2.097v-6.562zm0-2.555h2.098v1.71h-2.097v-1.71zm7.249 3.896c-.465 0-.82.167-1.064.501-.244.334-.366.816-.366 1.445 0 .629.122 1.11.366 1.444.244.334.599.501 1.064.501.457 0 .806-.167 1.049-.501.242-.334.363-.815.363-1.444 0-.63-.121-1.11-.363-1.445-.243-.334-.592-.5-1.05-.5zm0-1.5c1.129 0 2.01.305 2.645.914.635.61.952 1.454.952 2.532s-.317 1.922-.952 2.53c-.634.61-1.516.915-2.645.915-1.133 0-2.019-.305-2.657-.914-.64-.61-.958-1.453-.958-2.531s.319-1.922.958-2.532c.638-.609 1.524-.914 2.657-.914zm11.724 2.725v3.996h-2.109v-3.059c0-.566-.013-.957-.038-1.171-.025-.215-.07-.373-.132-.475a.86.86 0 0 0-.334-.32.992.992 0 0 0-.48-.114c-.438 0-.782.17-1.032.507-.25.338-.375.806-.375 1.404v3.228h-2.097v-6.562h2.097v.96c.317-.382.653-.665 1.008-.846a2.55 2.55 0 0 1 1.178-.273c.758 0 1.333.233 1.726.698.392.464.588 1.14.588 2.027zm8.579 2.338h3.85v1.658h-6.358v-1.658l3.193-2.818c.285-.258.496-.51.633-.756a1.56 1.56 0 0 0 .205-.768c0-.41-.138-.74-.413-.99-.276-.25-.642-.375-1.099-.375-.351 0-.736.075-1.154.225-.418.15-.865.374-1.342.671v-1.922a10.79 10.79 0 0 1 1.506-.383 8.354 8.354 0 0 1 1.459-.132c1.047 0 1.86.23 2.44.691.58.461.87 1.104.87 1.928 0 .477-.123.92-.369 1.333-.246.412-.763.964-1.552 1.655l-1.87 1.64zm-97.69 69.369c.473 0 .812-.088 1.017-.264.205-.175.307-.464.307-.867 0-.398-.102-.683-.307-.855-.205-.172-.544-.258-1.017-.258h-.95v2.244h.95zm-.95 1.559v3.31H180v-8.748h3.445c1.153 0 1.997.193 2.534.58.538.387.806.998.806 1.834 0 .578-.14 1.053-.419 1.424-.28.371-.7.645-1.262.82.308.07.584.23.829.478.244.248.49.624.74 1.128l1.225 2.484h-2.402l-1.066-2.174c-.215-.437-.433-.736-.654-.896-.22-.16-.514-.24-.881-.24h-.64zm13.436.011v.598h-4.904c.05.492.229.861.533 1.107.305.246.73.37 1.278.37a4.97 4.97 0 0 0 1.356-.197 6.96 6.96 0 0 0 1.427-.594v1.617a9.06 9.06 0 0 1-1.488.425 7.84 7.84 0 0 1-1.489.143c-1.187 0-2.11-.302-2.768-.905-.658-.604-.988-1.45-.988-2.54 0-1.07.324-1.912.97-2.526.647-.613 1.536-.92 2.67-.92 1.03 0 1.856.311 2.475.932s.928 1.451.928 2.49zm-2.156-.697c0-.398-.116-.72-.348-.964-.233-.244-.537-.366-.912-.366-.406 0-.736.114-.99.343-.254.228-.412.557-.474.987h2.724zm9.82-1.477c.266-.406.582-.715.947-.928.365-.213.766-.32 1.204-.32.754 0 1.328.233 1.723.698.394.465.591 1.14.591 2.027v3.996h-2.11v-3.422a3.773 3.773 0 0 0 .013-.392c0-.465-.068-.802-.205-1.011-.137-.209-.358-.314-.662-.314-.399 0-.706.165-.923.493-.217.328-.33.802-.337 1.423v3.223h-2.11v-3.422c0-.726-.062-1.194-.187-1.403-.125-.209-.348-.314-.668-.314-.402 0-.713.166-.932.496-.218.33-.328.801-.328 1.415v3.228h-2.109v-6.562h2.11v.96c.257-.37.553-.65.887-.837a2.218 2.218 0 0 1 1.105-.282 2.2 2.2 0 0 1 1.2.329c.348.218.612.525.792.92zm9.375 2.52c-.437 0-.766.074-.987.223-.22.148-.33.367-.33.656 0 .266.088.474.266.624.177.15.425.226.74.226.395 0 .727-.142.997-.425.27-.283.404-.638.404-1.064v-.24h-1.09zm3.206-.791v3.744h-2.116v-.973c-.28.399-.597.689-.949.87-.351.182-.78.273-1.283.273-.68 0-1.232-.198-1.655-.595-.424-.396-.636-.91-.636-1.544 0-.77.265-1.334.794-1.693.53-.36 1.36-.539 2.493-.539h1.236v-.164c0-.332-.13-.575-.392-.73-.262-.154-.67-.231-1.225-.231-.45 0-.867.045-1.254.135-.386.09-.746.224-1.078.404v-1.6c.45-.109.9-.192 1.354-.249.453-.056.906-.085 1.359-.085 1.184 0 2.038.234 2.563.7.526.467.789 1.226.789 2.277zm1.962-2.818h2.098v6.562h-2.098v-6.562zm0-2.555h2.098v1.71h-2.098v-1.71zm10.723 5.121v3.996h-2.11v-3.058c0-.567-.012-.957-.037-1.172-.026-.215-.07-.373-.132-.475a.86.86 0 0 0-.334-.32.992.992 0 0 0-.48-.114c-.438 0-.782.17-1.032.507-.25.338-.375.806-.375 1.404v3.228h-2.098v-6.562h2.098v.96c.316-.382.652-.664 1.008-.846a2.55 2.55 0 0 1 1.178-.273c.757 0 1.333.233 1.725.698.393.465.59 1.14.59 2.027zm1.957-2.566h2.098v6.562h-2.098v-6.562zm0-2.555h2.098v1.71h-2.098v-1.71zm10.723 5.121v3.996h-2.11v-3.058c0-.567-.012-.957-.038-1.172-.025-.215-.069-.373-.132-.475a.86.86 0 0 0-.334-.32.992.992 0 0 0-.48-.114c-.437 0-.781.17-1.031.507-.25.338-.375.806-.375 1.404v3.228h-2.098v-6.562h2.098v.96c.316-.382.652-.664 1.008-.846a2.55 2.55 0 0 1 1.177-.273c.758 0 1.333.233 1.726.698.392.465.589 1.14.589 2.027zm6.422 2.883c-.29.383-.608.664-.955.844-.348.18-.75.27-1.207.27-.801 0-1.463-.316-1.987-.947-.523-.631-.785-1.435-.785-2.411 0-.98.262-1.784.785-2.411.524-.627 1.186-.94 1.987-.94.457 0 .859.089 1.207.269.347.18.666.463.955.85v-.973h2.109v5.9c0 1.055-.333 1.86-.999 2.417-.666.557-1.632.835-2.897.835-.41 0-.807-.031-1.19-.094a7.438 7.438 0 0 1-1.154-.287v-1.635a4.98 4.98 0 0 0 1.078.472c.351.104.705.155 1.06.155.688 0 1.192-.15 1.512-.45.32-.302.48-.772.48-1.413v-.451zm-1.383-4.084c-.434 0-.772.16-1.014.48-.242.32-.363.774-.363 1.36 0 .601.117 1.057.351 1.368.235.31.577.466 1.026.466.437 0 .777-.16 1.02-.48.242-.321.363-.772.363-1.354 0-.586-.121-1.04-.364-1.36-.242-.32-.582-.48-1.02-.48zm9.785-3.55h3.744c1.113 0 1.968.246 2.564.74.595.494.893 1.199.893 2.113 0 .918-.298 1.624-.893 2.118-.596.494-1.45.741-2.564.741h-1.488v3.035h-2.256v-8.748zm2.256 1.634v2.443h1.248c.437 0 .775-.106 1.014-.32.238-.212.357-.514.357-.904 0-.391-.12-.692-.357-.903-.239-.21-.577-.316-1.014-.316h-1.248zm9.38 4.16c-.437 0-.766.074-.987.223-.22.148-.33.367-.33.656 0 .266.088.474.266.624.178.15.425.226.741.226.395 0 .727-.142.996-.425.27-.283.405-.638.405-1.064v-.24h-1.09zm3.206-.791v3.744h-2.115v-.973c-.282.399-.598.689-.95.87-.351.182-.779.273-1.283.273-.68 0-1.231-.198-1.655-.595-.424-.396-.636-.91-.636-1.544 0-.77.265-1.334.794-1.693.53-.36 1.36-.539 2.493-.539h1.237v-.164c0-.332-.131-.575-.393-.73-.262-.154-.67-.231-1.225-.231a5.53 5.53 0 0 0-1.254.135c-.386.09-.746.224-1.078.404v-1.6c.45-.109.9-.192 1.354-.249.453-.056.906-.085 1.36-.085 1.183 0 2.037.234 2.563.7.525.467.788 1.226.788 2.277zm6.838-1.031a2.693 2.693 0 0 0-.548-.19 2.481 2.481 0 0 0-.548-.062c-.54 0-.954.173-1.245.518-.291.346-.437.841-.437 1.486v3.023h-2.097v-6.562h2.097v1.078c.27-.43.58-.743.929-.94.35-.198.769-.297 1.257-.297.07 0 .146.003.228.01.082.005.202.018.358.038l.006 1.898zm3.345-3.65v1.863h2.163v1.5h-2.163v2.783c0 .305.06.51.182.618.121.107.361.161.72.161h1.079v1.5h-1.799c-.828 0-1.415-.173-1.76-.518-.346-.346-.52-.933-.52-1.761v-2.783h-1.042v-1.5h1.043v-1.864h2.097zm3.452 1.863h2.097v6.562h-2.097v-6.562zm0-2.555h2.097v1.71h-2.097v-1.71zm6.416.691v1.864h2.162v1.5h-2.162v2.783c0 .305.06.51.181.618.121.107.362.161.72.161H293v1.5h-1.8c-.828 0-1.415-.173-1.76-.518-.346-.346-.52-.933-.52-1.761v-2.783h-1.042v-1.5h1.043v-1.864h2.098zm3.45 1.864h2.098v6.562h-2.097v-6.562zm0-2.555h2.098v1.71h-2.097v-1.71zm7.249 3.896c-.465 0-.82.167-1.064.501-.244.334-.366.816-.366 1.445 0 .629.122 1.11.366 1.444.244.334.599.501 1.064.501.457 0 .806-.167 1.049-.5.242-.335.363-.816.363-1.445 0-.63-.121-1.11-.363-1.445-.243-.334-.592-.5-1.05-.5zm0-1.5c1.129 0 2.01.305 2.645.914.635.61.952 1.454.952 2.532s-.317 1.922-.952 2.531c-.634.61-1.516.914-2.645.914-1.133 0-2.019-.305-2.657-.914-.64-.61-.958-1.453-.958-2.531s.319-1.922.958-2.532c.638-.609 1.524-.914 2.657-.914zm11.724 2.725v3.996h-2.109v-3.058c0-.567-.013-.957-.038-1.172-.025-.215-.07-.373-.132-.475a.86.86 0 0 0-.334-.32.992.992 0 0 0-.48-.114c-.438 0-.782.17-1.032.507-.25.338-.375.806-.375 1.404v3.228h-2.097v-6.562h2.097v.96c.317-.382.653-.664 1.008-.846a2.55 2.55 0 0 1 1.178-.273c.758 0 1.333.233 1.726.698.392.465.588 1.14.588 2.027zm7.084-2.361v1.593a7.845 7.845 0 0 0-1.3-.421 5.421 5.421 0 0 0-1.184-.141c-.398 0-.694.05-.888.15a.488.488 0 0 0-.29.46c0 .167.073.296.22.386.146.09.41.156.788.2l.37.052c1.073.137 1.796.361 2.167.674.371.312.557.803.557 1.47 0 .7-.258 1.225-.774 1.577-.515.351-1.285.527-2.308.527-.434 0-.882-.034-1.345-.103-.463-.068-.938-.17-1.427-.307v-1.594a5.926 5.926 0 0 0 2.625.61c.41 0 .72-.057.926-.17.207-.114.31-.282.31-.504a.464.464 0 0 0-.213-.42c-.143-.091-.427-.162-.853-.213l-.369-.047c-.933-.117-1.588-.334-1.963-.65-.375-.317-.562-.797-.562-1.442 0-.695.238-1.21.715-1.547.476-.336 1.207-.504 2.191-.504.387 0 .793.03 1.219.088.425.059.888.15 1.388.276z" font-size="12" font-weight="700" font-family="Bitstream Vera Sans"/><path d="M25 74.5h125m-125 25h125m-125 25h125m-125 75h125m-125 225h125m-125 100h125m-125-25h125m-125-350h125m-125 300h125" fill="none" stroke="#000" stroke-dasharray="4,2"/><path d="M25 78.582h1.184v7.752h4.26v.996H25v-8.748zm7.863 4.57v3.205h1.899c.636 0 1.108-.131 1.415-.395.306-.264.46-.667.46-1.21 0-.547-.154-.95-.46-1.21-.307-.26-.779-.39-1.415-.39h-1.899zm0-3.597v2.636h1.752c.578 0 1.009-.108 1.292-.325.283-.217.425-.548.425-.993 0-.441-.142-.771-.425-.99-.283-.219-.714-.328-1.292-.328h-1.752zm-1.183-.973h3.023c.902 0 1.598.188 2.086.563.488.375.732.908.732 1.6 0 .534-.125.96-.375 1.276-.25.317-.617.514-1.101.592.582.125 1.034.386 1.356.783.323.396.484.891.484 1.485 0 .781-.266 1.385-.797 1.81-.531.426-1.287.64-2.268.64h-3.14v-8.749zm11.15 1.166l-1.605 4.354h3.216l-1.61-4.354zm-.668-1.166h1.342l3.334 8.748h-1.23l-.797-2.244h-3.944l-.797 2.244h-1.248l3.34-8.748zm12.404.78c-.609 0-1.067.3-1.374.899-.306.6-.46 1.5-.46 2.704 0 1.2.154 2.098.46 2.698.307.6.765.9 1.374.9.614 0 1.074-.3 1.38-.9.307-.6.46-1.499.46-2.698 0-1.203-.153-2.105-.46-2.704-.306-.6-.766-.9-1.38-.9zm0-.938c.98 0 1.73.388 2.247 1.163.518.775.777 1.901.777 3.378 0 1.473-.259 2.597-.777 3.372-.517.775-1.266 1.163-2.247 1.163-.98 0-1.73-.388-2.247-1.163-.517-.775-.776-1.9-.776-3.372 0-1.477.259-2.603.776-3.378.518-.775 1.267-1.163 2.247-1.163z" font-size="12" font-weight="400" font-family="Bitstream Vera Sans"/><path d="M25 103.752h1.184v7.752h4.26v.996H25v-8.748zm7.863 4.57v3.205h1.899c.636 0 1.108-.131 1.415-.395.306-.264.46-.667.46-1.21 0-.547-.154-.95-.46-1.21-.307-.26-.779-.39-1.415-.39h-1.899zm0-3.597v2.636h1.752c.578 0 1.009-.108 1.292-.325.283-.217.425-.548.425-.993 0-.441-.142-.772-.425-.99-.283-.219-.714-.328-1.292-.328h-1.752zm-1.183-.973h3.023c.902 0 1.598.187 2.086.562.488.375.732.909.732 1.6 0 .535-.125.961-.375 1.277-.25.317-.617.514-1.101.592.582.125 1.034.386 1.356.782.323.397.484.892.484 1.486 0 .781-.266 1.385-.797 1.81-.531.426-1.287.639-2.268.639h-3.14v-8.748zm11.15 1.166l-1.605 4.353h3.216l-1.61-4.353zm-.668-1.166h1.342l3.334 8.748h-1.23l-.797-2.244h-3.944l-.797 2.244h-1.248l3.34-8.748zm10.078 7.752h1.934v-6.674l-2.104.422v-1.078l2.092-.422h1.184v7.752h1.933v.996H52.24v-.996z" font-size="12" font-weight="400" font-family="DejaVu Sans"/><path d="M25 128.752h1.184v7.752h4.26v.996H25v-8.748zm7.863 4.57v3.205h1.899c.636 0 1.108-.131 1.415-.395.306-.264.46-.667.46-1.21 0-.547-.154-.95-.46-1.21-.307-.26-.779-.39-1.415-.39h-1.899zm0-3.597v2.636h1.752c.578 0 1.009-.108 1.292-.325.283-.217.425-.548.425-.993 0-.441-.142-.772-.425-.99-.283-.219-.714-.328-1.292-.328h-1.752zm-1.183-.973h3.023c.902 0 1.598.187 2.086.562.488.375.732.909.732 1.6 0 .535-.125.961-.375 1.277-.25.317-.617.514-1.101.592.582.125 1.034.386 1.356.782.323.397.484.892.484 1.486 0 .781-.266 1.385-.797 1.81-.531.426-1.287.639-2.268.639h-3.14v-8.748zm11.15 1.166l-1.605 4.353h3.216l-1.61-4.353zm-.668-1.166h1.342l3.334 8.748h-1.23l-.797-2.244h-3.944l-.797 2.244h-1.248l3.34-8.748zm10.893 7.752h4.13v.996h-5.554v-.996c.45-.465 1.061-1.089 1.837-1.872.775-.783 1.262-1.288 1.462-1.515.379-.426.643-.786.794-1.08.15-.296.225-.586.225-.871 0-.465-.163-.844-.489-1.137-.326-.293-.751-.44-1.274-.44-.372 0-.763.065-1.175.194a7.072 7.072 0 0 0-1.322.586v-1.195a9.405 9.405 0 0 1 1.336-.434 4.989 4.989 0 0 1 1.137-.146c.906 0 1.629.226 2.168.68.54.453.809 1.058.809 1.816 0 .36-.068.7-.202 1.022-.135.323-.38.702-.736 1.14-.097.113-.408.44-.931.981-.524.541-1.262 1.298-2.215 2.27zM25 153.582h1.184v7.752h4.26v.996H25v-8.748zm7.863 4.57v3.205h1.899c.636 0 1.108-.131 1.415-.395.306-.264.46-.667.46-1.21 0-.547-.154-.95-.46-1.21-.307-.26-.779-.39-1.415-.39h-1.899zm0-3.597v2.636h1.752c.578 0 1.009-.108 1.292-.325.283-.217.425-.548.425-.993 0-.441-.142-.771-.425-.99-.283-.219-.714-.328-1.292-.328h-1.752zm-1.183-.973h3.023c.902 0 1.598.188 2.086.563.488.375.732.908.732 1.6 0 .534-.125.96-.375 1.276-.25.317-.617.514-1.101.592.582.125 1.034.386 1.356.783.323.396.484.891.484 1.485 0 .781-.266 1.385-.797 1.81-.531.426-1.287.64-2.268.64h-3.14v-8.749zm11.15 1.166l-1.605 4.354h3.216l-1.61-4.354zm-.668-1.166h1.342l3.334 8.748h-1.23l-.797-2.244h-3.944l-.797 2.244h-1.248l3.34-8.748zm13.46 4.031c.565.121 1.008.373 1.326.756.319.383.478.856.478 1.418 0 .863-.297 1.531-.89 2.004-.595.473-1.438.709-2.532.709-.367 0-.745-.036-1.134-.108a8.222 8.222 0 0 1-1.204-.326v-1.142a4.1 4.1 0 0 0 1.078.433c.39.098.799.147 1.225.147.742 0 1.307-.147 1.696-.44.389-.293.583-.718.583-1.277 0-.516-.18-.919-.542-1.21-.361-.29-.864-.436-1.509-.436h-1.02v-.973h1.067c.582 0 1.027-.116 1.336-.349.309-.232.463-.567.463-1.005 0-.449-.16-.793-.478-1.034-.318-.24-.774-.36-1.368-.36-.324 0-.672.035-1.043.105-.37.07-.779.18-1.224.329v-1.055c.449-.125.87-.219 1.262-.281a7.078 7.078 0 0 1 1.11-.094c.9 0 1.61.204 2.134.612.523.408.785.96.785 1.655 0 .485-.139.894-.416 1.228-.278.334-.672.565-1.184.694zM25 203.582h1.184v7.752h4.26v.996H25v-8.748zm7.863 4.57v3.205h1.899c.636 0 1.108-.131 1.415-.395.306-.264.46-.667.46-1.21 0-.547-.154-.95-.46-1.21-.307-.26-.779-.39-1.415-.39h-1.899zm0-3.597v2.636h1.752c.578 0 1.009-.108 1.292-.325.283-.217.425-.548.425-.993 0-.441-.142-.771-.425-.99-.283-.219-.714-.328-1.292-.328h-1.752zm-1.183-.973h3.023c.902 0 1.598.188 2.086.563.488.375.732.908.732 1.6 0 .534-.125.96-.375 1.276-.25.317-.617.514-1.101.592.582.125 1.034.386 1.356.783.323.396.484.891.484 1.485 0 .781-.266 1.385-.797 1.81-.531.426-1.287.64-2.268.64h-3.14v-8.749zm11.15 1.166l-1.605 4.354h3.216l-1.61-4.354zm-.668-1.166h1.342l3.334 8.748h-1.23l-.797-2.244h-3.944l-.797 2.244h-1.248l3.34-8.748zm13.46 4.031c.565.121 1.008.373 1.326.756.319.383.478.856.478 1.418 0 .863-.297 1.531-.89 2.004-.595.473-1.438.709-2.532.709-.367 0-.745-.036-1.134-.108a8.222 8.222 0 0 1-1.204-.326v-1.142a4.1 4.1 0 0 0 1.078.433c.39.098.799.147 1.225.147.742 0 1.307-.147 1.696-.44.389-.293.583-.718.583-1.277 0-.516-.18-.919-.542-1.21-.361-.29-.864-.436-1.509-.436h-1.02v-.973h1.067c.582 0 1.027-.116 1.336-.349.309-.232.463-.567.463-1.005 0-.449-.16-.793-.478-1.034-.318-.24-.774-.36-1.368-.36-.324 0-.672.035-1.043.105-.37.07-.779.18-1.224.329v-1.055c.449-.125.87-.219 1.262-.281a7.078 7.078 0 0 1 1.11-.094c.9 0 1.61.204 2.134.612.523.408.785.96.785 1.655 0 .485-.139.894-.416 1.228-.278.334-.672.565-1.184.694zm7.306-3l-2.989 4.67h2.989v-4.67zm-.31-1.031h1.487v5.701h1.249v.985h-1.249v2.062h-1.177v-2.062h-3.95v-1.143l3.64-5.543z" font-size="12" font-weight="400" font-family="Bitstream Vera Sans"/><path d="M25 411.082h1.184v7.752h4.26v.996H25v-8.748zm7.863 4.57v3.205h1.899c.636 0 1.108-.131 1.415-.395.306-.264.46-.667.46-1.21 0-.547-.154-.95-.46-1.21-.307-.26-.779-.39-1.415-.39h-1.899zm0-3.597v2.636h1.752c.578 0 1.009-.108 1.292-.325.283-.217.425-.548.425-.993 0-.441-.142-.771-.425-.99-.283-.219-.714-.328-1.292-.328h-1.752zm-1.183-.973h3.023c.902 0 1.598.188 2.086.563.488.375.732.908.732 1.6 0 .534-.125.96-.375 1.276-.25.317-.617.514-1.101.592.582.125 1.034.386 1.356.783.323.396.484.891.484 1.485 0 .781-.266 1.385-.797 1.81-.531.426-1.287.64-2.268.64h-3.14v-8.749zm11.15 1.166l-1.605 4.354h3.216l-1.61-4.354zm-.668-1.166h1.342l3.334 8.748h-1.23l-.797-2.244h-3.944l-.797 2.244h-1.248l3.34-8.748zm9.861 4.488h7.512v.996h-7.512v-.996zm13.653-.457c.566.121 1.009.373 1.327.756.318.383.477.856.477 1.418 0 .863-.296 1.531-.89 2.004-.594.473-1.438.709-2.531.709a6.21 6.21 0 0 1-1.134-.108 8.222 8.222 0 0 1-1.204-.326v-1.142a4.1 4.1 0 0 0 1.078.433c.39.098.799.147 1.224.147.743 0 1.308-.147 1.697-.44.388-.293.583-.718.583-1.277 0-.516-.18-.919-.542-1.21-.362-.29-.865-.436-1.509-.436h-1.02v-.973H64.3c.582 0 1.027-.116 1.336-.349.308-.232.463-.567.463-1.005 0-.449-.16-.793-.478-1.034-.318-.24-.774-.36-1.368-.36-.324 0-.672.035-1.043.105-.371.07-.78.18-1.225.329v-1.055c.45-.125.87-.219 1.263-.281a7.078 7.078 0 0 1 1.11-.094c.899 0 1.61.204 2.133.612.524.408.785.96.785 1.655 0 .485-.138.894-.416 1.228-.277.334-.672.565-1.183.694zm7.306-3l-2.988 4.67h2.988v-4.67zm-.31-1.031h1.488v5.701h1.248v.985H74.16v2.062h-1.178v-2.062h-3.949v-1.143l3.639-5.543z" font-size="12" font-weight="400" font-family="DejaVu Sans"/><path d="M25 436.082h1.184v7.752h4.26v.996H25v-8.748zm7.863 4.57v3.205h1.899c.636 0 1.108-.131 1.415-.395.306-.264.46-.667.46-1.21 0-.547-.154-.95-.46-1.21-.307-.26-.779-.39-1.415-.39h-1.899zm0-3.597v2.636h1.752c.578 0 1.009-.108 1.292-.325.283-.217.425-.548.425-.993 0-.441-.142-.771-.425-.99-.283-.219-.714-.328-1.292-.328h-1.752zm-1.183-.973h3.023c.902 0 1.598.188 2.086.563.488.375.732.908.732 1.6 0 .534-.125.96-.375 1.276-.25.317-.617.514-1.101.592.582.125 1.034.386 1.356.783.323.396.484.891.484 1.485 0 .781-.266 1.385-.797 1.81-.531.426-1.287.64-2.268.64h-3.14v-8.749zm11.15 1.166l-1.605 4.354h3.216l-1.61-4.354zm-.668-1.166h1.342l3.334 8.748h-1.23l-.797-2.244h-3.944l-.797 2.244h-1.248l3.34-8.748zm9.861 4.488h7.512v.996h-7.512v-.996zm13.653-.457c.566.121 1.009.373 1.327.756.318.383.477.856.477 1.418 0 .863-.296 1.531-.89 2.004-.594.473-1.438.709-2.531.709a6.21 6.21 0 0 1-1.134-.108 8.222 8.222 0 0 1-1.204-.326v-1.142a4.1 4.1 0 0 0 1.078.433c.39.098.799.147 1.224.147.743 0 1.308-.147 1.697-.44.388-.293.583-.718.583-1.277 0-.516-.18-.919-.542-1.21-.362-.29-.865-.436-1.509-.436h-1.02v-.973H64.3c.582 0 1.027-.116 1.336-.349.308-.232.463-.567.463-1.005 0-.449-.16-.793-.478-1.034-.318-.24-.774-.36-1.368-.36-.324 0-.672.035-1.043.105-.371.07-.78.18-1.225.329v-1.055c.45-.125.87-.219 1.263-.281a7.078 7.078 0 0 1 1.11-.094c.899 0 1.61.204 2.133.612.524.408.785.96.785 1.655 0 .485-.138.894-.416 1.228-.277.334-.672.565-1.183.694zm7.64 0c.567.121 1.01.373 1.328.756.318.383.477.856.477 1.418 0 .863-.297 1.531-.89 2.004-.594.473-1.438.709-2.532.709-.367 0-.745-.036-1.134-.108a8.222 8.222 0 0 1-1.204-.326v-1.142a4.1 4.1 0 0 0 1.078.433c.391.098.8.147 1.225.147.742 0 1.308-.147 1.696-.44.389-.293.583-.718.583-1.277 0-.516-.18-.919-.542-1.21-.361-.29-.864-.436-1.508-.436h-1.02v-.973h1.066c.582 0 1.028-.116 1.336-.349.309-.232.463-.567.463-1.005 0-.449-.159-.793-.477-1.034-.319-.24-.775-.36-1.368-.36-.325 0-.672.035-1.043.105-.371.07-.78.18-1.225.329v-1.055c.45-.125.87-.219 1.263-.281a7.078 7.078 0 0 1 1.11-.094c.898 0 1.61.204 2.133.612.523.408.785.96.785 1.655 0 .485-.139.894-.416 1.228-.277.334-.672.565-1.184.694zM25 486.252h1.184v7.752h4.26V495H25v-8.748zm7.863 4.57v3.205h1.899c.636 0 1.108-.131 1.415-.395.306-.264.46-.667.46-1.21 0-.547-.154-.95-.46-1.21-.307-.26-.779-.39-1.415-.39h-1.899zm0-3.597v2.636h1.752c.578 0 1.009-.108 1.292-.325.283-.217.425-.548.425-.993 0-.441-.142-.772-.425-.99-.283-.219-.714-.328-1.292-.328h-1.752zm-1.183-.973h3.023c.902 0 1.598.187 2.086.562.488.375.732.909.732 1.6 0 .535-.125.961-.375 1.277-.25.317-.617.514-1.101.592.582.125 1.034.386 1.356.782.323.397.484.892.484 1.486 0 .781-.266 1.385-.797 1.81-.531.426-1.287.639-2.268.639h-3.14v-8.748zm11.15 1.166l-1.605 4.353h3.216l-1.61-4.353zm-.668-1.166h1.342L46.838 495h-1.23l-.797-2.244h-3.944L40.07 495h-1.248l3.34-8.748zm9.861 4.488h7.512v.996h-7.512v-.996zm11.086 3.264h4.131V495h-5.554v-.996c.449-.465 1.061-1.089 1.836-1.872.776-.783 1.263-1.288 1.462-1.515.38-.426.644-.786.794-1.08.15-.296.226-.586.226-.871 0-.465-.163-.844-.49-1.137-.326-.293-.75-.44-1.274-.44-.37 0-.762.065-1.175.194a7.072 7.072 0 0 0-1.32.586v-1.195a9.405 9.405 0 0 1 1.335-.434 4.989 4.989 0 0 1 1.137-.146c.906 0 1.629.226 2.168.68.539.453.808 1.058.808 1.816 0 .36-.067.7-.202 1.022-.135.323-.38.702-.735 1.14-.098.113-.408.44-.932.981a485.85 485.85 0 0 1-2.215 2.27zM25 511.252h1.184v7.752h4.26V520H25v-8.748zm7.863 4.57v3.205h1.899c.636 0 1.108-.131 1.415-.395.306-.264.46-.667.46-1.21 0-.547-.154-.95-.46-1.21-.307-.26-.779-.39-1.415-.39h-1.899zm0-3.597v2.636h1.752c.578 0 1.009-.108 1.292-.325.283-.217.425-.548.425-.993 0-.441-.142-.772-.425-.99-.283-.219-.714-.328-1.292-.328h-1.752zm-1.183-.973h3.023c.902 0 1.598.187 2.086.562.488.375.732.909.732 1.6 0 .535-.125.961-.375 1.277-.25.317-.617.514-1.101.592.582.125 1.034.386 1.356.782.323.397.484.892.484 1.486 0 .781-.266 1.385-.797 1.81-.531.426-1.287.639-2.268.639h-3.14v-8.748zm11.15 1.166l-1.605 4.353h3.216l-1.61-4.353zm-.668-1.166h1.342L46.838 520h-1.23l-.797-2.244h-3.944L40.07 520h-1.248l3.34-8.748zm9.861 4.488h7.512v.996h-7.512v-.996zm10.272 3.264h1.934v-6.674l-2.104.422v-1.078l2.092-.422H65.4v7.752h1.934V520h-5.04v-.996z" font-size="12" font-weight="400" font-family="Bitstream Vera Sans"/><path d="M365.37 192v-3.744c0-1.113.246-1.968.74-2.564.495-.595 1.199-.893 2.113-.893.918 0 1.624.298 2.118.893.494.596.741 1.45.741 2.564v1.488h3.035V192h-8.748zm1.634-2.256h2.443v-1.248c0-.437-.106-.775-.32-1.014-.212-.238-.514-.357-.904-.357-.391 0-.692.12-.903.357-.21.239-.316.577-.316 1.014v1.248zm2.338-11.314c-.086.183-.15.366-.19.548a2.48 2.48 0 0 0-.062.547c0 .54.173.955.518 1.246.346.29.841.436 1.486.436h3.023v2.098h-6.562v-2.098h1.078c-.43-.27-.743-.58-.94-.929-.198-.35-.296-.768-.296-1.257 0-.07.003-.146.009-.228.006-.082.018-.201.038-.357l1.898-.006zm-1.787-1.055v-2.098h6.562v2.098h-6.562zm-2.555 0v-2.098h1.71v2.098H365zm3.645-10.207a2.856 2.856 0 0 1-.93-.946 2.348 2.348 0 0 1-.319-1.204c0-.754.233-1.329.698-1.723.465-.395 1.14-.592 2.027-.592h3.996v2.11h-3.422a3.773 3.773 0 0 0-.392-.012c-.465 0-.802.068-1.011.205-.209.136-.313.357-.313.662 0 .398.164.706.492.923.328.216.802.329 1.424.336h3.222v2.11h-3.422c-.726 0-1.194.062-1.403.187-.209.125-.313.348-.313.668 0 .403.165.713.495.932.33.219.801.328 1.415.328h3.228v2.11h-6.562v-2.11h.96a2.703 2.703 0 0 1-.837-.888 2.218 2.218 0 0 1-.282-1.104c0-.453.11-.854.329-1.201a2.06 2.06 0 0 1 .92-.791zm2.52-9.375c0 .437.073.767.222.987.148.221.367.331.656.331.266 0 .474-.089.624-.266.15-.178.226-.425.226-.741a1.32 1.32 0 0 0-.425-.997c-.283-.27-.638-.404-1.064-.404h-.24v1.09zm-.792-3.205h3.744v2.115h-.972c.398.281.688.598.87.95.181.35.272.779.272 1.283 0 .68-.198 1.231-.595 1.655-.396.424-.91.636-1.544.636-.77 0-1.334-.265-1.693-.794-.36-.53-.539-1.36-.539-2.494v-1.236h-.164c-.332 0-.575.131-.73.393-.154.261-.231.67-.231 1.224 0 .45.045.868.135 1.254.09.387.224.746.404 1.078h-1.6c-.109-.449-.192-.9-.249-1.353a10.957 10.957 0 0 1-.085-1.36c0-1.183.234-2.038.7-2.563.467-.525 1.226-.788 2.277-.788zm-1.031-6.838c-.086.184-.15.366-.19.548a2.48 2.48 0 0 0-.062.548c0 .539.173.954.518 1.245.346.29.841.436 1.486.436h3.023v2.098h-6.562v-2.098h1.078c-.43-.27-.743-.579-.94-.928-.198-.35-.296-.769-.296-1.257 0-.07.003-.147.009-.229a7 7 0 0 1 .038-.357l1.898-.006zm-1.787-.193v-2.098l4.453-1.764-4.453-1.5v-2.097l7.183 2.76c.73.277 1.241.6 1.533.97.29.368.436.856.436 1.461v1.213h-1.377v-.656c0-.356-.057-.615-.17-.777-.113-.162-.316-.288-.61-.378l-.18-.058-6.815 2.924zm5.912-20.819c.273.563.478 1.147.615 1.752a8.47 8.47 0 0 1 .205 1.875c0 1.457-.407 2.612-1.222 3.463-.814.852-1.919 1.277-3.313 1.277-1.41 0-2.52-.433-3.328-1.3-.809-.868-1.213-2.055-1.213-3.563 0-.582.055-1.14.164-1.673.11-.533.271-1.036.486-1.508h1.81a6.594 6.594 0 0 0-.62 1.456 5.297 5.297 0 0 0-.205 1.45c0 .898.25 1.59.753 2.077.502.486 1.22.73 2.153.73.926 0 1.64-.235 2.144-.704.504-.468.756-1.134.756-1.998 0-.234-.014-.452-.044-.653a2.47 2.47 0 0 0-.137-.542h-1.7v1.377h-1.511v-3.516h4.207zm-8.098-1.98v-3.744c0-1.114.247-1.968.741-2.564.495-.596 1.199-.893 2.113-.893.918 0 1.624.297 2.118.893.494.596.741 1.45.741 2.564v1.488h3.035v2.256h-8.748zm1.635-2.256h2.443v-1.248c0-.438-.106-.775-.32-1.014-.212-.238-.514-.357-.904-.357-.391 0-.692.119-.903.357-.21.239-.316.576-.316 1.014v1.248zm-1.635-5.49v-8.063h1.705v2.9h7.043v2.256h-7.043v2.907h-1.705z" font-size="12" font-weight="700" fill="#00d4b4" font-family="Bitstream Vera Sans"/><path d="M365.645 518.672h1.851a8 8 0 0 0-.486 1.406c-.11.457-.164.889-.164 1.295 0 .54.074.938.222 1.195.149.258.38.387.692.387a.647.647 0 0 0 .548-.26c.13-.174.243-.49.337-.947l.193-.96c.195-.974.492-1.665.89-2.075.399-.41.965-.615 1.7-.615.965 0 1.682.286 2.153.858.47.572.706 1.446.706 2.622a8.98 8.98 0 0 1-.158 1.67 10.337 10.337 0 0 1-.469 1.676h-1.904a8.47 8.47 0 0 0 .67-1.62 5.424 5.424 0 0 0 .226-1.51c0-.491-.082-.868-.246-1.13a.783.783 0 0 0-.703-.393c-.273 0-.484.09-.633.267-.148.178-.28.532-.398 1.064l-.193.873c-.188.875-.487 1.514-.897 1.919-.41.404-.963.606-1.658.606-.871 0-1.541-.281-2.01-.844-.469-.562-.703-1.37-.703-2.426 0-.48.036-.974.108-1.482.073-.508.181-1.033.326-1.576zm5.173-9.018h.598v4.905c.492-.051.861-.229 1.107-.534.247-.304.37-.73.37-1.277 0-.441-.066-.894-.197-1.356a6.96 6.96 0 0 0-.594-1.427h1.617c.187.496.329.992.425 1.488.095.496.143.992.143 1.488 0 1.188-.302 2.11-.905 2.769-.604.658-1.45.987-2.54.987-1.07 0-1.912-.323-2.526-.97-.613-.646-.92-1.536-.92-2.668 0-1.032.311-1.857.932-2.476.621-.62 1.451-.929 2.49-.929zm-.697 2.157c-.398 0-.72.116-.964.348-.244.233-.366.536-.366.911 0 .407.114.737.343.99.228.254.557.413.987.475v-2.724zm-2.361-9.041h1.71c-.195.285-.34.57-.433.858-.094.287-.14.585-.14.893 0 .586.17 1.042.512 1.369.342.326.82.489 1.433.489.613 0 1.09-.163 1.432-.49.342-.326.513-.782.513-1.368 0-.328-.049-.64-.146-.934a2.768 2.768 0 0 0-.434-.817h1.717a5.873 5.873 0 0 1 .363 2.015c0 1.184-.304 2.11-.911 2.777-.607.668-1.452 1.002-2.534 1.002-1.082 0-1.927-.334-2.534-1.002-.608-.667-.912-1.593-.912-2.777 0-.344.03-.682.091-1.016a6.07 6.07 0 0 1 .273-1zm1.136-4.946c0 .465.167.82.501 1.064.334.244.816.366 1.445.366.629 0 1.11-.122 1.444-.366.334-.244.501-.599.501-1.064 0-.457-.167-.806-.5-1.049-.335-.242-.816-.363-1.445-.363-.63 0-1.11.121-1.445.363-.334.243-.5.592-.5 1.05zm-1.5 0c0-1.129.305-2.01.915-2.645.609-.635 1.453-.952 2.53-.952 1.079 0 1.923.317 2.532.952.61.634.914 1.516.914 2.645 0 1.133-.305 2.019-.914 2.657-.61.64-1.453.958-2.531.958s-1.922-.319-2.531-.958c-.61-.638-.915-1.524-.915-2.657zm2.725-11.724h3.996v2.109h-3.058c-.567 0-.957.013-1.172.038-.215.025-.373.07-.475.132a.86.86 0 0 0-.32.334.992.992 0 0 0-.113.48c0 .438.168.782.506 1.032.338.25.806.375 1.404.375h3.228v2.097h-6.562V490.6h.96c-.382-.317-.664-.653-.846-1.008a2.55 2.55 0 0 1-.273-1.178c0-.758.233-1.333.698-1.726.465-.392 1.14-.588 2.027-.588zm-1.605-6.422H365v-2.11h9.117v2.11h-.949c.387.289.67.607.85.955.18.347.27.75.27 1.207 0 .808-.322 1.473-.965 1.992-.642.52-1.47.78-2.481.78-1.012 0-1.84-.26-2.482-.78-.642-.52-.964-1.184-.964-1.992 0-.453.091-.855.273-1.204.182-.35.464-.67.847-.958zm4.248 1.383c0-.45-.164-.792-.493-1.029-.328-.236-.804-.354-1.43-.354-.624 0-1.1.118-1.429.354-.328.237-.492.58-.492 1.029 0 .445.164.786.492 1.022.328.236.805.354 1.43.354.625 0 1.101-.118 1.43-.354.328-.236.492-.577.492-1.022zm-1.6-8.461c0 .437.074.766.223.987.148.22.367.331.656.331.266 0 .474-.089.624-.267.15-.177.226-.424.226-.74a1.32 1.32 0 0 0-.425-.997c-.283-.27-.638-.404-1.064-.404h-.24v1.09zm-.79-3.205h3.743v2.115h-.972c.398.281.688.597.87.949.181.352.272.78.272 1.283 0 .68-.198 1.232-.595 1.655-.396.424-.91.636-1.544.636-.77 0-1.334-.264-1.693-.794-.36-.529-.539-1.36-.539-2.493v-1.236h-.164c-.332 0-.575.13-.73.392-.154.262-.231.67-.231 1.225 0 .45.045.867.135 1.254.09.387.224.746.404 1.078h-1.6c-.109-.45-.192-.9-.249-1.354a10.957 10.957 0 0 1-.085-1.359c0-1.183.234-2.038.7-2.563.467-.526 1.226-.788 2.277-.788zm-1.032-6.838c-.086.183-.15.366-.19.547a2.48 2.48 0 0 0-.062.548c0 .54.173.954.518 1.245.346.291.841.437 1.486.437h3.023v2.098h-6.562v-2.098h1.078c-.43-.27-.743-.58-.94-.929-.198-.35-.296-.768-.296-1.257 0-.07.003-.146.009-.228.006-.082.018-.201.038-.358l1.898-.006zm-1.787-.194v-2.097l4.453-1.764-4.453-1.5v-2.098l7.183 2.76c.73.277 1.241.6 1.533.97.29.369.436.856.436 1.462v1.213h-1.377v-.657c0-.355-.057-.614-.17-.776-.113-.162-.316-.288-.61-.378l-.18-.059-6.815 2.924zm5.912-20.818a8.07 8.07 0 0 1 .615 1.752c.137.605.205 1.23.205 1.875 0 1.457-.407 2.611-1.222 3.463-.814.851-1.919 1.277-3.313 1.277-1.41 0-2.52-.433-3.328-1.3-.809-.868-1.213-2.055-1.213-3.563 0-.582.055-1.14.164-1.673a7.1 7.1 0 0 1 .486-1.509h1.81a6.594 6.594 0 0 0-.62 1.456 5.297 5.297 0 0 0-.205 1.45c0 .899.25 1.591.753 2.078.502.486 1.22.73 2.153.73.926 0 1.64-.235 2.144-.704.504-.469.756-1.135.756-1.998 0-.234-.014-.452-.044-.653a2.47 2.47 0 0 0-.137-.542h-1.7v1.377h-1.511v-3.516h4.207zm-8.098-1.98v-3.745c0-1.113.247-1.967.741-2.563.495-.596 1.199-.894 2.113-.894.918 0 1.624.298 2.118.894.494.596.741 1.45.741 2.563v1.489h3.035v2.255h-8.748zm1.635-2.256h2.443v-1.248c0-.438-.106-.776-.32-1.014-.212-.238-.514-.358-.904-.358-.391 0-.692.12-.903.358-.21.238-.316.576-.316 1.014v1.248zm-1.635-5.49v-8.063h1.705v2.9h7.043v2.256h-7.043v2.906h-1.705z" font-size="12" font-weight="700" fill="#3a70f2" font-family="Bitstream Vera Sans"/><path d="M40.059 48.36a13.645 13.645 0 0 1-3.159 1.23c-1.09.273-2.213.41-3.369.41-2.625 0-4.703-.814-6.234-2.443C25.766 45.927 25 43.719 25 40.93c0-2.82.78-5.04 2.338-6.657s3.697-2.425 6.416-2.425c1.047 0 2.05.109 3.012.328.96.219 1.867.543 2.718.972v3.622c-.882-.555-1.757-.97-2.625-1.243a8.647 8.647 0 0 0-2.613-.41c-1.617 0-2.863.502-3.738 1.506s-1.313 2.44-1.313 4.307c0 1.851.422 3.28 1.266 4.289.844 1.008 2.043 1.511 3.598 1.511.421 0 .814-.029 1.177-.087a3.91 3.91 0 0 0 .967-.276V42.97H33.73v-3.024h6.329v8.414zm3.562-16.196h4.066v10.488c0 1.446.213 2.479.64 3.1.425.621 1.118.932 2.08.932.968 0 1.665-.31 2.091-.932.426-.621.639-1.654.639-3.1V32.164h4.066v10.488c0 2.477-.56 4.32-1.682 5.532-1.12 1.21-2.826 1.816-5.115 1.816s-3.992-.605-5.11-1.816c-1.116-1.211-1.675-3.055-1.675-5.532V32.164zm17.531 0h4.067V49.66h-4.067V32.164zm12.082 3.41V46.25h1.454c1.656 0 2.921-.457 3.796-1.371.875-.914 1.313-2.242 1.313-3.984 0-1.735-.436-3.055-1.307-3.961-.87-.907-2.138-1.36-3.802-1.36h-1.454zm-4.066-3.41h4.289c2.39 0 4.17.19 5.338.568A6.938 6.938 0 0 1 81.8 34.66c.742.79 1.293 1.7 1.652 2.73.36 1.032.54 2.2.54 3.505 0 1.32-.18 2.498-.54 3.533a7.573 7.573 0 0 1-1.652 2.736 7.01 7.01 0 0 1-3.035 1.928c-1.18.379-2.95.568-5.309.568h-4.289V32.164zm25.453 0h6.738c2.008 0 3.547.494 4.618 1.482 1.07.989 1.605 2.397 1.605 4.225 0 1.836-.535 3.248-1.605 4.236-1.07.989-2.61 1.483-4.618 1.483h-2.671v6.07H94.62V32.164zm4.067 3.27v4.886h2.238c.789 0 1.398-.213 1.828-.638.43-.426.644-1.03.644-1.81 0-.782-.214-1.384-.644-1.806-.43-.421-1.04-.632-1.828-.632h-2.238zm16.91 8.32c-.79 0-1.383.148-1.782.445-.398.297-.597.735-.597 1.313 0 .531.16.947.48 1.248.32.3.766.45 1.336.45.711 0 1.309-.282 1.793-.849.484-.566.727-1.275.727-2.127v-.48h-1.957zm5.765-1.582v7.488h-3.808v-1.945c-.508.797-1.078 1.377-1.711 1.74s-1.403.545-2.309.545c-1.226 0-2.22-.396-2.982-1.19-.762-.792-1.143-1.822-1.143-3.087 0-1.54.477-2.668 1.43-3.387.953-.719 2.45-1.078 4.488-1.078h2.227v-.328c0-.664-.237-1.15-.71-1.46-.472-.308-1.204-.462-2.197-.462-.812 0-1.566.09-2.261.27a7.354 7.354 0 0 0-1.946.808v-3.2a19.93 19.93 0 0 1 2.444-.497c.816-.114 1.63-.17 2.443-.17 2.133 0 3.672.467 4.617 1.4.946.934 1.418 2.451 1.418 4.553zm12.293-2.063a4.723 4.723 0 0 0-.99-.38 4.023 4.023 0 0 0-.99-.124c-.969 0-1.715.346-2.238 1.038-.524.691-.786 1.681-.786 2.97v6.047h-3.773V36.535h3.773v2.156c.485-.859 1.041-1.486 1.67-1.88.63-.395 1.385-.592 2.268-.592.125 0 .262.006.41.017.148.012.363.037.645.077l.011 3.796zm5.989-7.3v3.726h3.89v3h-3.89v5.567c0 .609.107 1.021.322 1.236.215.215.646.322 1.295.322h1.945v3h-3.234c-1.493 0-2.551-.346-3.176-1.037s-.938-1.865-.938-3.521v-5.567h-1.875v-3h1.875V32.81h3.786zm6.187 3.726h3.773V49.66h-3.773V36.535zm0-5.11h3.773v3.423h-3.773v-3.422zm11.531 1.384v3.726h3.89v3h-3.89v5.567c0 .609.108 1.021.323 1.236.214.215.646.322 1.294.322h1.946v3h-3.235c-1.492 0-2.55-.346-3.175-1.037s-.938-1.865-.938-3.521v-5.567h-1.875v-3h1.875V32.81h3.785zm6.188 3.726h3.773V49.66h-3.773V36.535zm0-5.11h3.773v3.423h-3.773v-3.422zm13.02 7.794c-.837 0-1.473.334-1.91 1.002-.438.668-.657 1.63-.657 2.888s.219 2.221.656 2.889c.438.668 1.074 1.002 1.91 1.002.828 0 1.46-.334 1.893-1.002.433-.668.65-1.63.65-2.889 0-1.257-.217-2.22-.65-2.888-.434-.668-1.065-1.002-1.893-1.002zm0-3c2.038 0 3.628.61 4.769 1.828 1.14 1.219 1.71 2.906 1.71 5.062 0 2.157-.57 3.844-1.71 5.063C180.2 49.39 178.61 50 176.57 50c-2.03 0-3.623-.61-4.775-1.828-1.152-1.219-1.729-2.906-1.729-5.063 0-2.156.577-3.843 1.729-5.062 1.152-1.219 2.744-1.828 4.775-1.828zm21.117 5.449v7.992h-3.797v-6.117c0-1.133-.024-1.914-.07-2.344-.048-.43-.126-.746-.235-.949a1.64 1.64 0 0 0-.604-.639 1.642 1.642 0 0 0-.86-.228c-.79 0-1.41.338-1.858 1.013-.45.676-.674 1.612-.674 2.807v6.457h-3.774V36.535h3.774v1.922c.57-.766 1.176-1.33 1.816-1.693a4.225 4.225 0 0 1 2.121-.545c1.36 0 2.393.465 3.1 1.394.707.93 1.06 2.282 1.06 4.055zm9.292-9.504h14.508v3.41h-5.215V49.66h-4.066V35.574h-5.227v-3.41zm21.727 11.59c-.789 0-1.383.148-1.781.445-.399.297-.598.735-.598 1.313 0 .531.16.947.48 1.248.32.3.766.45 1.337.45.71 0 1.308-.282 1.792-.849.485-.566.727-1.275.727-2.127v-.48h-1.957zm5.766-1.582v7.488h-3.809v-1.945c-.508.797-1.078 1.377-1.71 1.74-.634.363-1.403.545-2.31.545-1.226 0-2.22-.396-2.982-1.19-.762-.792-1.142-1.822-1.142-3.087 0-1.54.476-2.668 1.43-3.387.952-.719 2.448-1.078 4.488-1.078h2.226v-.328c0-.664-.236-1.15-.709-1.46-.473-.308-1.205-.462-2.197-.462-.813 0-1.567.09-2.262.27a7.347 7.347 0 0 0-1.945.808v-3.2a19.93 19.93 0 0 1 2.443-.497c.817-.114 1.631-.17 2.444-.17 2.132 0 3.671.467 4.617 1.4.945.934 1.418 2.451 1.418 4.553zm9.797 4.781c.812 0 1.431-.328 1.857-.984.426-.656.639-1.61.639-2.86 0-1.25-.213-2.203-.64-2.859-.425-.656-1.044-.984-1.856-.984-.805 0-1.424.33-1.858.99-.433.66-.65 1.611-.65 2.853 0 1.243.217 2.194.65 2.854.434.66 1.053.99 1.858.99zm-2.508-8.496c.523-.766 1.101-1.33 1.734-1.693.633-.364 1.36-.545 2.18-.545 1.453 0 2.648.642 3.586 1.927.937 1.286 1.406 2.94 1.406 4.963 0 2.024-.469 3.678-1.406 4.963-.938 1.285-2.133 1.928-3.586 1.928-.82 0-1.547-.182-2.18-.545-.633-.363-1.21-.928-1.734-1.693v1.898h-3.774V31.426h3.774v7.031zm11.695-7.031h3.773V49.66h-3.773V31.426zm19.195 11.637v1.195h-8.824c.086.984.404 1.722.955 2.215.551.492 1.319.738 2.303.738.797 0 1.611-.13 2.443-.393.832-.261 1.686-.658 2.56-1.19v3.235c-.89.375-1.782.658-2.677.85-.894.191-1.787.287-2.678.287-2.14 0-3.802-.604-4.986-1.81-1.184-1.208-1.775-2.9-1.775-5.08 0-2.141.582-3.825 1.746-5.051 1.164-1.227 2.765-1.84 4.804-1.84 1.86 0 3.346.62 4.46 1.863 1.113 1.242 1.67 2.902 1.67 4.98zm-3.879-1.395c0-.797-.209-1.44-.627-1.928-.417-.488-.966-.732-1.646-.732-.727 0-1.318.228-1.775.685-.457.457-.745 1.116-.862 1.975h4.91zm25.383-8.953v3.703c-.86-.43-1.7-.754-2.525-.973a9.127 9.127 0 0 0-2.338-.328c-.969 0-1.686.149-2.15.446-.465.296-.698.757-.698 1.382 0 .47.157.834.47 1.096.312.262.882.486 1.71.674l1.723.387c1.757.39 3.004.984 3.738 1.78.734.798 1.101 1.93 1.101 3.4 0 1.929-.513 3.364-1.54 4.306-1.028.941-2.6 1.412-4.717 1.412-1 0-2.002-.105-3.006-.316a17.293 17.293 0 0 1-3.018-.938v-3.809c1.008.594 1.98 1.042 2.918 1.342.938.301 1.844.451 2.719.451.883 0 1.56-.164 2.033-.492.473-.328.71-.797.71-1.406 0-.547-.161-.969-.481-1.266-.32-.296-.961-.562-1.922-.796l-1.57-.387c-1.57-.375-2.721-.973-3.452-1.793-.73-.82-1.095-1.926-1.095-3.317 0-1.742.507-3.082 1.523-4.02 1.016-.937 2.469-1.405 4.36-1.405.867 0 1.757.072 2.671.216.914.145 1.86.362 2.836.65zm13.98 4.23v3.422a5.73 5.73 0 0 0-1.54-.867 4.712 4.712 0 0 0-1.612-.281c-1.054 0-1.875.342-2.46 1.025-.587.684-.88 1.639-.88 2.865 0 1.227.293 2.182.88 2.866.585.683 1.406 1.025 2.46 1.025a4.86 4.86 0 0 0 1.688-.293 4.747 4.747 0 0 0 1.465-.867v3.433a9.565 9.565 0 0 1-1.793.545 9.359 9.359 0 0 1-1.828.182c-2.133 0-3.801-.607-5.004-1.822-1.203-1.215-1.805-2.905-1.805-5.069s.602-3.853 1.805-5.068c1.203-1.215 2.87-1.822 5.004-1.822.617 0 1.226.06 1.828.181a9.958 9.958 0 0 1 1.793.545zm15.13 4.723v7.992h-3.797v-6.094c0-1.148-.024-1.937-.07-2.367-.047-.43-.126-.746-.235-.949a1.64 1.64 0 0 0-.603-.639 1.642 1.642 0 0 0-.862-.228c-.789 0-1.408.338-1.857 1.013-.45.676-.674 1.612-.674 2.807v6.457h-3.773V31.426h3.773v7.031c.57-.766 1.176-1.33 1.816-1.693a4.225 4.225 0 0 1 2.121-.545c1.36 0 2.393.465 3.1 1.394.707.93 1.06 2.282 1.06 4.055zm15.293 1.395v1.195h-8.825c.086.984.405 1.722.955 2.215.551.492 1.319.738 2.303.738.797 0 1.612-.13 2.444-.393.832-.261 1.685-.658 2.56-1.19v3.235c-.89.375-1.783.658-2.678.85-.894.191-1.787.287-2.677.287-2.141 0-3.803-.604-4.987-1.81-1.183-1.208-1.775-2.9-1.775-5.08 0-2.141.582-3.825 1.746-5.051 1.164-1.227 2.766-1.84 4.805-1.84 1.859 0 3.345.62 4.459 1.863 1.113 1.242 1.67 2.902 1.67 4.98zm-3.88-1.395c0-.797-.208-1.44-.626-1.928-.418-.488-.967-.732-1.647-.732-.726 0-1.318.228-1.775.685-.457.457-.744 1.116-.861 1.975h4.91zm17.708-2.953c.476-.813 1.043-1.432 1.699-1.858a3.902 3.902 0 0 1 2.168-.638c1.36 0 2.394.465 3.105 1.394.711.93 1.067 2.282 1.067 4.055v7.992h-3.797v-6.844c.008-.101.014-.207.018-.316.004-.11.006-.266.006-.469 0-.93-.124-1.603-.37-2.021-.246-.418-.646-.627-1.2-.627-.712 0-1.263.328-1.653.984-.39.656-.594 1.606-.61 2.848v6.445h-3.796v-6.844c0-1.453-.114-2.388-.34-2.806-.227-.418-.63-.627-1.207-.627-.719 0-1.276.33-1.67.99-.395.66-.592 1.604-.592 2.83v6.457h-3.797V36.535h3.797v1.922c.461-.742.992-1.3 1.594-1.676a3.692 3.692 0 0 1 1.992-.562c.812 0 1.533.219 2.162.656.629.438 1.104 1.05 1.424 1.84zm23.343 4.347v1.196h-8.824c.086.984.405 1.722.955 2.215.551.492 1.319.738 2.303.738.797 0 1.611-.13 2.443-.393.832-.261 1.686-.658 2.561-1.19v3.235c-.89.375-1.783.658-2.678.85-.894.191-1.787.287-2.678.287-2.14 0-3.802-.604-4.986-1.81-1.183-1.208-1.775-2.9-1.775-5.08 0-2.141.582-3.825 1.746-5.051 1.164-1.227 2.765-1.84 4.805-1.84 1.859 0 3.345.62 4.459 1.863 1.113 1.242 1.67 2.902 1.67 4.98zm-3.878-1.394c0-.797-.21-1.44-.627-1.928-.418-.488-.967-.732-1.647-.732-.726 0-1.318.228-1.775.685-.457.457-.744 1.116-.862 1.975h4.91z" font-size="24" font-weight="700" font-family="Bitstream Vera Sans"/></svg>